<?xml version="1.0" encoding="UTF-8" standalone="no"?>
<svg
   viewBox="0 0 1280 320"
   width="1280"
   height="320"
   role="img"
   aria-label="Nexum vertex — Ethereum Swarm node in Rust"
   font-family="'JetBrains Mono','IBM Plex Mono',ui-monospace,Menlo,Consolas,'Liberation Mono',monospace"
   version="1.1"
   id="svg12"
   xmlns="http://www.w3.org/2000/svg"
   xmlns:svg="http://www.w3.org/2000/svg">
  <defs
     id="defs12" />
  <rect
     width="1280"
     height="320"
     fill="#0a0b0a"
     id="rect1" />
  <g
     stroke="#5e7c4e"
     stroke-width="1"
     fill="none"
     id="g4">
    <path
       d="M24 24 L24 56 M24 24 L56 24"
       id="path1" />
    <path
       d="M1256 24 L1256 56 M1256 24 L1224 24"
       id="path2" />
    <path
       d="M24 296 L24 264 M24 296 L56 296"
       id="path3" />
    <path
       d="M1256 296 L1256 264 M1256 296 L1224 296"
       id="path4" />
  </g>
  <circle
     cx="74"
     cy="60"
     r="5"
     fill="#a8d68a"
     id="circle4" />
  <path
     d="M 93.296,65 V 53.32 h 2.192 l 3.392,9.712 Q 98.848,62.584 98.8,61.944 98.752,61.304 98.72,60.616 98.704,59.928 98.704,59.352 V 53.32 h 1.6 V 65 h -2.176 l -3.392,-9.712 q 0.032,0.432 0.064,1.056 0.048,0.608 0.08,1.28 0.032,0.672 0.032,1.248 V 65 Z m 13.00801,0 V 53.32 h 6.864 v 1.536 h -5.168 v 3.328 h 4.608 v 1.488 h -4.608 v 3.792 h 5.168 V 65 Z m 11.84,0 3.296,-5.952 -3.104,-5.728 h 1.952 l 1.632,3.184 q 0.144,0.304 0.288,0.608 0.144,0.304 0.224,0.464 0.064,-0.16 0.192,-0.464 0.144,-0.304 0.304,-0.608 l 1.664,-3.184 h 1.872 l -3.104,5.664 3.296,6.016 h -1.952 l -1.808,-3.456 q -0.16,-0.304 -0.304,-0.608 -0.144,-0.32 -0.224,-0.496 -0.064,0.176 -0.208,0.496 -0.144,0.304 -0.288,0.592 l -1.84,3.472 z m 17.05601,0.16 q -1.68,0 -2.592,-0.912 -0.912,-0.928 -0.912,-2.512 V 53.32 h 1.728 v 8.4 q 0,0.896 0.448,1.408 0.448,0.512 1.328,0.512 0.88,0 1.328,-0.512 0.448,-0.512 0.448,-1.408 v -8.4 h 1.728 v 8.416 q 0,1.6 -0.912,2.512 -0.912,0.912 -2.592,0.912 z m 9.008,-0.16 V 53.32 h 2.368 l 1.392,5.04 1.44,-5.04 h 2.384 V 65 h -1.632 v -5.216 q 0,-0.896 0.032,-1.936 0.048,-1.056 0.112,-2.08 0.064,-1.024 0.144,-1.856 l -1.76,5.952 h -1.456 l -1.696,-5.808 q 0.144,1.136 0.224,2.608 0.08,1.472 0.08,3.12 V 65 Z"
     id="text4"
     style="font-weight:600;font-size:16px;letter-spacing:3.2;fill:#d6d6cf"
     aria-label="NEXUM" />
  <line
     x1="160"
     y1="48"
     x2="160"
     y2="72"
     stroke="#1f221f"
     stroke-width="1"
     id="line4" />
  <path
     d="m 173.288,65 v -7.7 h 1.26 v 1.47 h 0.014 q 0.098,-0.77 0.63,-1.19 0.532,-0.42 1.414,-0.42 1.162,0 1.848,0.714 0.686,0.714 0.686,1.946 V 65 h -1.26 v -4.956 q 0,-0.882 -0.448,-1.344 -0.434,-0.476 -1.19,-0.476 -0.784,0 -1.246,0.49 -0.448,0.49 -0.448,1.386 V 65 Z m 9.41201,0 2.73,-3.962 -2.562,-3.738 h 1.484 l 1.526,2.38 q 0.098,0.154 0.182,0.336 0.098,0.182 0.154,0.294 0.042,-0.112 0.126,-0.294 0.098,-0.182 0.196,-0.336 l 1.526,-2.38 h 1.484 l -2.562,3.752 2.716,3.948 h -1.484 l -1.652,-2.52 q -0.098,-0.154 -0.196,-0.35 -0.084,-0.21 -0.154,-0.336 -0.056,0.126 -0.168,0.336 -0.098,0.196 -0.21,0.35 l -1.652,2.52 z m 10.14,0 v -7.7 h 1.092 v 1.022 h 0.028 q 0.07,-0.518 0.406,-0.84 0.35,-0.322 0.882,-0.322 0.504,0 0.854,0.294 0.35,0.294 0.504,0.798 h 0.014 q 0.098,-0.504 0.434,-0.798 0.35,-0.294 0.882,-0.294 0.742,0 1.176,0.56 0.448,0.546 0.448,1.428 V 65 h -1.176 v -5.866 q 0,-0.462 -0.224,-0.728 -0.224,-0.28 -0.616,-0.28 -0.378,0 -0.602,0.266 -0.224,0.266 -0.224,0.728 V 65 h -1.036 v -5.866 q 0,-0.462 -0.224,-0.728 -0.224,-0.28 -0.602,-0.28 -0.392,0 -0.616,0.266 -0.224,0.266 -0.224,0.728 V 65 Z m 11.12001,-4.06 v -1.12 h 4.48 v 1.12 z m 9.608,4.06 v -7.7 h 1.26 v 1.47 h 0.028 q 0.098,-0.742 0.63,-1.176 0.532,-0.434 1.428,-0.434 1.204,0 1.848,0.728 0.658,0.714 0.658,2.044 v 0.658 h -1.26 v -0.658 q 0,-1.68 -1.638,-1.68 -0.826,0 -1.26,0.476 -0.434,0.476 -0.434,1.372 V 65 Z m 12.32401,0.112 q -1.288,0 -2.002,-0.574 -0.7,-0.588 -0.7,-1.652 h 1.26 q 0,0.532 0.378,0.84 0.378,0.294 1.064,0.294 h 0.616 q 0.7,0 1.078,-0.308 0.392,-0.308 0.392,-0.868 0,-0.994 -0.91,-1.12 l -2.128,-0.308 q -0.784,-0.112 -1.218,-0.644 -0.434,-0.546 -0.434,-1.428 0,-1.008 0.686,-1.582 0.7,-0.574 1.918,-0.574 h 0.616 q 1.12,0 1.82,0.56 0.714,0.546 0.77,1.442 h -1.274 q -0.028,-0.406 -0.392,-0.672 -0.35,-0.266 -0.924,-0.266 h -0.616 q -0.644,0 -1.008,0.294 -0.364,0.294 -0.364,0.798 0,0.812 0.742,0.924 l 1.988,0.28 q 1.96,0.28 1.96,2.296 0,1.078 -0.714,1.68 -0.7,0.588 -1.988,0.588 z m 17.15801,1.428 4.97,-13.16 h 1.33 l -4.97,13.16 z m 22.32401,-1.54 -2.618,-7.7 h 1.358 l 1.68,5.18 q 0.154,0.462 0.266,0.896 0.112,0.42 0.168,0.658 0.07,-0.238 0.168,-0.658 0.098,-0.434 0.238,-0.896 l 1.68,-5.18 h 1.33 l -2.618,7.7 z m 10.826,0.14 q -1.358,0 -2.198,-0.812 -0.826,-0.826 -0.826,-2.268 v -1.82 q 0,-1.442 0.826,-2.254 0.84,-0.826 2.198,-0.826 0.91,0 1.582,0.364 0.686,0.364 1.064,1.022 0.378,0.658 0.378,1.554 v 1.372 h -4.816 V 62.2 q 0,0.854 0.49,1.358 0.49,0.49 1.302,0.49 0.7,0 1.148,-0.266 0.462,-0.28 0.56,-0.742 h 1.26 q -0.126,0.966 -0.938,1.54 -0.812,0.56 -2.03,0.56 z m -1.792,-4.648 h 3.584 V 60.1 q 0,-0.91 -0.476,-1.4 -0.462,-0.504 -1.316,-0.504 -0.854,0 -1.33,0.504 -0.462,0.49 -0.462,1.4 z M 283.56806,65 v -7.7 h 1.26 v 1.47 h 0.028 q 0.098,-0.742 0.63,-1.176 0.532,-0.434 1.428,-0.434 1.204,0 1.848,0.728 0.658,0.714 0.658,2.044 v 0.658 h -1.26 v -0.658 q 0,-1.68 -1.638,-1.68 -0.826,0 -1.26,0.476 -0.434,0.476 -0.434,1.372 V 65 Z m 13.402,0 q -0.952,0 -1.526,-0.546 -0.574,-0.56 -0.574,-1.484 v -4.522 h -2.212 V 57.3 h 2.212 v -2.17 h 1.26 v 2.17 h 3.15 v 1.148 h -3.15 v 4.522 q 0,0.392 0.224,0.644 0.238,0.238 0.616,0.238 h 2.24 V 65 Z m 9.23002,0.14 q -1.358,0 -2.198,-0.812 -0.826,-0.826 -0.826,-2.268 v -1.82 q 0,-1.442 0.826,-2.254 0.84,-0.826 2.198,-0.826 0.91,0 1.582,0.364 0.686,0.364 1.064,1.022 0.378,0.658 0.378,1.554 v 1.372 h -4.816 V 62.2 q 0,0.854 0.49,1.358 0.49,0.49 1.302,0.49 0.7,0 1.148,-0.266 0.462,-0.28 0.56,-0.742 h 1.26 q -0.126,0.966 -0.938,1.54 -0.812,0.56 -2.03,0.56 z m -1.792,-4.648 h 3.584 V 60.1 q 0,-0.91 -0.476,-1.4 -0.462,-0.504 -1.316,-0.504 -0.854,0 -1.33,0.504 -0.462,0.49 -0.462,1.4 z m 8.292,4.508 2.73,-3.962 -2.562,-3.738 h 1.484 l 1.526,2.38 q 0.098,0.154 0.182,0.336 0.098,0.182 0.154,0.294 0.042,-0.112 0.126,-0.294 0.098,-0.182 0.196,-0.336 l 1.526,-2.38 h 1.484 l -2.562,3.752 2.716,3.948 h -1.484 l -1.652,-2.52 q -0.098,-0.154 -0.196,-0.35 -0.084,-0.21 -0.154,-0.336 -0.056,0.126 -0.168,0.336 -0.098,0.196 -0.21,0.35 l -1.652,2.52 z"
     id="text5"
     style="font-size:14px;letter-spacing:1.6;fill:#a8d68a"
     aria-label="nxm-rs / vertex" />
  <path
     d="m 77.9,141.35 -4.03,-4.03 4.03,-4.043 4.03,4.043 z M 95.700009,142 v -9.49 h 5.460001 v 1.066 h -4.303001 v 2.938 h 3.848001 v 1.04 h -3.848001 v 3.38 h 4.303001 V 142 Z m 12.215011,0 v -8.424 h -2.6 v -1.066 h 6.37 v 1.066 h -2.6 V 142 Z m 8.094,0 v -9.49 h 1.17 v 4.056 h 3.042 v -4.056 h 1.17 V 142 h -1.17 v -4.368 h -3.042 V 142 Z m 10.29101,0 v -9.49 h 5.46 v 1.066 h -4.303 v 2.938 h 3.848 v 1.04 h -3.848 v 3.38 h 4.303 V 142 Z m 10.109,0 v -9.49 h 2.925 q 0.845,0 1.482,0.351 0.637,0.338 0.988,0.949 0.351,0.611 0.351,1.43 0,0.962 -0.494,1.651 -0.494,0.689 -1.313,0.962 l 1.937,4.147 h -1.287 l -1.859,-4.03 h -1.573 V 142 Z m 1.157,-5.083 h 1.768 q 0.728,0 1.17,-0.455 0.442,-0.468 0.442,-1.222 0,-0.767 -0.442,-1.222 -0.442,-0.455 -1.17,-0.455 h -1.768 z m 9.134,5.083 v -9.49 h 5.46 v 1.066 h -4.303 v 2.938 h 3.848 v 1.04 h -3.848 v 3.38 h 4.303 V 142 Z m 12.80001,0.13 q -1.326,0 -2.028,-0.728 -0.702,-0.741 -0.702,-2.002 v -6.89 h 1.17 v 6.89 q 0,0.78 0.377,1.235 0.39,0.455 1.183,0.455 0.78,0 1.17,-0.455 0.39,-0.455 0.39,-1.235 v -6.89 h 1.17 v 6.89 q 0,1.274 -0.702,2.002 -0.689,0.728 -2.028,0.728 z m 7.23601,-0.13 v -9.49 h 1.729 l 1.209,4.108 1.261,-4.108 h 1.729 V 142 h -1.131 v -4.485 q 0,-0.637 0.013,-1.456 0.026,-0.832 0.065,-1.677 0.039,-0.845 0.091,-1.521 l -1.534,4.901 h -1.014 l -1.469,-4.784 q 0.104,0.962 0.143,2.106 0.039,1.144 0.039,2.431 V 142 Z m 23.41601,0.13 q -1.378,0 -2.197,-0.728 -0.819,-0.728 -0.819,-2.002 h 1.17 q 0,0.793 0.507,1.248 0.507,0.442 1.339,0.442 0.806,0 1.287,-0.468 0.481,-0.468 0.481,-1.222 0,-0.572 -0.312,-0.988 -0.299,-0.429 -0.871,-0.585 l -1.443,-0.403 q -0.897,-0.26 -1.417,-0.923 -0.507,-0.676 -0.507,-1.586 0,-0.754 0.338,-1.326 0.338,-0.572 0.949,-0.884 0.611,-0.325 1.404,-0.325 0.806,0 1.417,0.325 0.624,0.312 0.975,0.884 0.351,0.559 0.351,1.3 h -1.17 q 0,-0.65 -0.442,-1.053 -0.442,-0.416 -1.131,-0.416 -0.689,0 -1.118,0.416 -0.429,0.403 -0.429,1.053 0,0.52 0.273,0.897 0.286,0.364 0.793,0.507 l 1.482,0.416 q 0.949,0.26 1.469,0.988 0.533,0.715 0.533,1.703 0,1.248 -0.793,1.989 -0.793,0.741 -2.119,0.741 z m 7.639,-0.13 -1.131,-9.49 h 1.079 l 0.741,7.02 q 0.052,0.429 0.078,0.897 0.026,0.455 0.039,0.728 0.026,-0.273 0.065,-0.728 0.052,-0.468 0.104,-0.897 l 0.936,-7.02 h 1.261 l 0.858,7.02 q 0.052,0.429 0.104,0.897 0.052,0.455 0.078,0.728 0.026,-0.273 0.052,-0.728 0.039,-0.468 0.091,-0.897 l 0.767,-7.02 h 1.027 l -1.157,9.49 h -1.469 l -0.858,-7.15 q -0.052,-0.442 -0.078,-0.858 -0.026,-0.429 -0.052,-0.663 -0.026,0.234 -0.052,0.663 -0.026,0.416 -0.091,0.858 l -0.923,7.15 z m 9.45901,0 2.47,-9.49 h 1.573 l 2.457,9.49 h -1.183 l -0.624,-2.522 h -2.873 l -0.624,2.522 z m 2.054,-3.51 h 2.392 l -0.728,-2.925 q -0.208,-0.832 -0.325,-1.391 -0.117,-0.559 -0.143,-0.728 -0.026,0.169 -0.143,0.728 -0.117,0.559 -0.325,1.378 z m 8.70499,3.51 v -9.49 h 2.925 q 0.845,0 1.482,0.351 0.637,0.338 0.988,0.949 0.351,0.611 0.351,1.43 0,0.962 -0.494,1.651 -0.494,0.689 -1.313,0.962 l 1.937,4.147 h -1.287 l -1.859,-4.03 h -1.573 V 142 Z m 1.157,-5.083 h 1.768 q 0.728,0 1.17,-0.455 0.442,-0.468 0.442,-1.222 0,-0.767 -0.442,-1.222 -0.442,-0.455 -1.17,-0.455 h -1.768 z m 8.77002,5.083 v -9.49 h 1.729 l 1.209,4.108 1.261,-4.108 h 1.729 V 142 h -1.131 v -4.485 q 0,-0.637 0.013,-1.456 0.026,-0.832 0.065,-1.677 0.039,-0.845 0.091,-1.521 l -1.534,4.901 h -1.014 l -1.469,-4.784 q 0.104,0.962 0.143,2.106 0.039,1.144 0.039,2.431 V 142 Z m 23.36401,-3.38 q -0.481,0 -0.78,-0.286 -0.286,-0.286 -0.286,-0.741 0,-0.481 0.286,-0.78 0.299,-0.299 0.78,-0.299 0.481,0 0.767,0.299 0.299,0.299 0.299,0.78 0,0.455 -0.299,0.741 -0.286,0.286 -0.767,0.286 z m 17.709,3.38 v -9.49 h 2.691 q 1.3,0 2.028,0.65 0.741,0.65 0.741,1.807 0,0.728 -0.468,1.313 -0.455,0.585 -1.196,0.728 v 0.039 q 0.559,0.065 0.975,0.39 0.429,0.325 0.663,0.832 0.247,0.494 0.247,1.092 0,1.222 -0.754,1.937 -0.741,0.702 -2.041,0.702 z m 1.144,-5.447 h 1.534 q 0.754,0 1.183,-0.403 0.442,-0.403 0.442,-1.092 0,-0.689 -0.429,-1.092 -0.429,-0.403 -1.183,-0.403 h -1.547 z m 0,4.394 h 1.612 q 0.819,0 1.287,-0.429 0.481,-0.442 0.481,-1.196 0,-0.78 -0.481,-1.261 -0.468,-0.494 -1.287,-0.494 h -1.612 z m 9.14702,1.053 v -9.49 h 5.46 v 1.066 h -4.303 v 2.938 h 3.848 v 1.04 h -3.848 v 3.38 h 4.303 V 142 Z m 10.19999,0 v -9.49 h 5.46 v 1.066 h -4.303 v 2.938 h 3.848 v 1.04 h -3.848 v 3.38 h 4.303 V 142 Z m 10.72002,-3.77 v -1.04 h 4.16 v 1.04 z m 12.38399,3.9 q -1.3,0 -2.054,-0.728 -0.754,-0.728 -0.754,-2.002 v -4.29 q 0,-1.274 0.754,-2.002 0.754,-0.728 2.054,-0.728 1.274,0 2.028,0.741 0.754,0.728 0.754,1.989 h -1.17 q 0,-0.806 -0.429,-1.235 -0.416,-0.442 -1.183,-0.442 -0.767,0 -1.209,0.442 -0.429,0.429 -0.429,1.235 v 4.29 q 0,0.806 0.429,1.248 0.442,0.429 1.209,0.429 0.767,0 1.183,-0.429 0.429,-0.442 0.429,-1.248 h 1.17 q 0,1.261 -0.754,2.002 -0.754,0.728 -2.028,0.728 z m 10.09602,0 q -1.274,0 -2.015,-0.741 -0.741,-0.741 -0.741,-2.119 v -4.03 q 0,-1.378 0.741,-2.119 0.741,-0.741 2.015,-0.741 1.274,0 2.015,0.741 0.741,0.741 0.741,2.106 v 4.043 q 0,1.378 -0.741,2.119 -0.741,0.741 -2.015,0.741 z m 0,-1.053 q 0.767,0 1.17,-0.429 0.416,-0.442 0.416,-1.248 v -4.29 q 0,-0.806 -0.416,-1.235 -0.403,-0.442 -1.17,-0.442 -0.754,0 -1.17,0.442 -0.416,0.429 -0.416,1.235 v 4.29 q 0,0.806 0.416,1.248 0.416,0.429 1.17,0.429 z m 7.23599,0.923 v -9.49 h 1.729 l 1.209,4.108 1.261,-4.108 h 1.729 V 142 h -1.131 v -4.485 q 0,-0.637 0.013,-1.456 0.026,-0.832 0.065,-1.677 0.039,-0.845 0.091,-1.521 l -1.534,4.901 h -1.014 l -1.469,-4.784 q 0.104,0.962 0.143,2.106 0.039,1.144 0.039,2.431 V 142 Z m 10.46001,0 v -9.49 h 3.055 q 1.326,0 2.106,0.767 0.793,0.754 0.793,2.028 0,1.274 -0.793,2.041 -0.78,0.754 -2.106,0.754 h -1.885 v 3.9 z m 1.17,-4.953 h 1.885 q 0.767,0 1.222,-0.468 0.468,-0.481 0.468,-1.274 0,-0.806 -0.468,-1.274 -0.455,-0.468 -1.222,-0.468 h -1.885 z m 8.48402,4.953 2.47,-9.49 h 1.573 l 2.457,9.49 h -1.183 l -0.624,-2.522 h -2.873 l -0.624,2.522 z m 2.054,-3.51 h 2.392 l -0.728,-2.925 q -0.208,-0.832 -0.325,-1.391 -0.117,-0.559 -0.143,-0.728 -0.026,0.169 -0.143,0.728 -0.117,0.559 -0.325,1.378 z m 10.81098,3.51 v -8.424 h -2.6 v -1.066 h 6.37 v 1.066 h -2.6 V 142 Z m 8.25001,0 v -1.066 h 1.937 v -7.358 h -1.937 v -1.066 h 5.07 v 1.066 h -1.937 v 7.358 h 1.937 V 142 Z m 10.04401,0 v -9.49 h 2.691 q 1.3,0 2.028,0.65 0.741,0.65 0.741,1.807 0,0.728 -0.468,1.313 -0.455,0.585 -1.196,0.728 v 0.039 q 0.559,0.065 0.975,0.39 0.429,0.325 0.663,0.832 0.247,0.494 0.247,1.092 0,1.222 -0.754,1.937 -0.741,0.702 -2.041,0.702 z m 1.144,-5.447 h 1.534 q 0.754,0 1.183,-0.403 0.442,-0.403 0.442,-1.092 0,-0.689 -0.429,-1.092 -0.429,-0.403 -1.183,-0.403 h -1.547 z m 0,4.394 h 1.612 q 0.819,0 1.287,-0.429 0.481,-0.442 0.481,-1.196 0,-0.78 -0.481,-1.261 -0.468,-0.494 -1.287,-0.494 h -1.612 z m 9.53701,1.053 v -9.49 h 1.17 v 8.424 h 4.29 V 142 Z m 9.80999,0 v -9.49 h 5.46 v 1.066 h -4.303 v 2.938 h 3.848 v 1.04 h -3.848 v 3.38 h 4.303 V 142 Z m 23.00002,-3.38 q -0.481,0 -0.78,-0.286 -0.286,-0.286 -0.286,-0.741 0,-0.481 0.286,-0.78 0.299,-0.299 0.78,-0.299 0.481,0 0.767,0.299 0.299,0.299 0.299,0.78 0,0.455 -0.299,0.741 -0.286,0.286 -0.767,0.286 z M 442.4092,142 v -9.49 h 2.925 q 0.845,0 1.482,0.351 0.637,0.338 0.988,0.949 0.351,0.611 0.351,1.43 0,0.962 -0.494,1.651 -0.494,0.689 -1.313,0.962 l 1.937,4.147 h -1.287 l -1.859,-4.03 h -1.573 V 142 Z m 1.157,-5.083 h 1.768 q 0.728,0 1.17,-0.455 0.442,-0.468 0.442,-1.222 0,-0.767 -0.442,-1.222 -0.442,-0.455 -1.17,-0.455 h -1.768 z m 11.73398,5.213 q -1.326,0 -2.028,-0.728 -0.702,-0.741 -0.702,-2.002 v -6.89 h 1.17 v 6.89 q 0,0.78 0.377,1.235 0.39,0.455 1.183,0.455 0.78,0 1.17,-0.455 0.39,-0.455 0.39,-1.235 v -6.89 h 1.17 v 6.89 q 0,1.274 -0.702,2.002 -0.689,0.728 -2.028,0.728 z m 10.25201,0 q -1.378,0 -2.197,-0.728 -0.819,-0.728 -0.819,-2.002 h 1.17 q 0,0.793 0.507,1.248 0.507,0.442 1.339,0.442 0.806,0 1.287,-0.468 0.481,-0.468 0.481,-1.222 0,-0.572 -0.312,-0.988 -0.299,-0.429 -0.871,-0.585 l -1.443,-0.403 q -0.897,-0.26 -1.417,-0.923 -0.507,-0.676 -0.507,-1.586 0,-0.754 0.338,-1.326 0.338,-0.572 0.949,-0.884 0.611,-0.325 1.404,-0.325 0.806,0 1.417,0.325 0.624,0.312 0.975,0.884 0.351,0.559 0.351,1.3 h -1.17 q 0,-0.65 -0.442,-1.053 -0.442,-0.416 -1.131,-0.416 -0.689,0 -1.118,0.416 -0.429,0.403 -0.429,1.053 0,0.52 0.273,0.897 0.286,0.364 0.793,0.507 l 1.482,0.416 q 0.949,0.26 1.469,0.988 0.533,0.715 0.533,1.703 0,1.248 -0.793,1.989 -0.793,0.741 -2.119,0.741 z M 475.1152,142 v -8.424 h -2.6 v -1.066 h 6.37 v 1.066 h -2.6 V 142 Z"
     id="text6"
     style="font-size:13px;letter-spacing:2.4;fill:#a8d68a"
     aria-label="◆ ETHEREUM SWARM · BEE-COMPATIBLE · RUST" />
  <path
     d="m 76.392,200 9.828,-37.96 h 6.812 l 9.776,37.96 h -5.252 l -2.392,-9.88 H 84.036 L 81.644,200 Z m 8.684,-14.144 h 9.048 L 91.42,174.52 q -0.78,-3.12 -1.248,-5.304 -0.468,-2.184 -0.572,-2.964 -0.104,0.78 -0.572,2.964 -0.468,2.184 -1.196,5.252 z m 64.13204,14.664 q -5.616,0 -8.944,-2.912 -3.328,-2.964 -3.328,-8.112 h 5.148 q 0,3.016 1.924,4.732 1.924,1.716 5.2,1.716 3.12,0 4.94,-1.716 1.872,-1.768 1.872,-4.68 0,-2.184 -1.196,-3.796 -1.196,-1.664 -3.38,-2.236 l -5.616,-1.508 q -3.692,-1.04 -5.876,-3.744 -2.132,-2.756 -2.132,-6.5 0,-3.068 1.352,-5.356 1.404,-2.34 3.9,-3.588 2.496,-1.3 5.772,-1.3 3.328,0 5.824,1.3 2.548,1.248 3.952,3.536 1.404,2.288 1.404,5.304 h -5.096 q 0,-2.496 -1.716,-4.056 -1.664,-1.56 -4.368,-1.56 -2.704,0 -4.368,1.56 -1.612,1.56 -1.612,4.056 0,2.028 1.092,3.432 1.092,1.352 3.068,1.924 l 5.772,1.56 q 3.9,1.04 6.084,4.004 2.184,2.912 2.184,6.968 0,3.328 -1.456,5.824 -1.456,2.444 -4.16,3.796 -2.652,1.352 -6.24,1.352 z m 19.92402,-0.52 -4.628,-28.6 h 4.368 l 2.808,19.5 q 0.156,1.3 0.312,2.808 0.156,1.508 0.208,2.444 0.104,-0.936 0.26,-2.444 0.156,-1.508 0.364,-2.808 l 3.432,-19.5 h 4.888 l 3.432,19.5 q 0.208,1.3 0.364,2.808 0.208,1.456 0.312,2.444 0.104,-0.988 0.26,-2.444 0.156,-1.508 0.312,-2.808 l 2.912,-19.5 h 4.16 l -4.836,28.6 h -5.512 l -3.172,-19.24 q -0.208,-1.404 -0.416,-3.12 -0.156,-1.716 -0.26,-2.704 -0.052,0.988 -0.312,2.704 -0.208,1.716 -0.416,3.12 l -3.276,19.24 z m 36.61602,0.52 q -4.42,0 -7.02,-2.444 -2.548,-2.496 -2.548,-6.5 0,-4.004 2.652,-6.448 2.704,-2.444 7.072,-2.444 h 8.372 V 180.5 q 0,-5.252 -5.824,-5.252 -2.6,0 -4.212,0.988 -1.56,0.936 -1.664,2.652 h -5.096 q 0.26,-3.484 3.172,-5.72 2.912,-2.288 7.8,-2.288 5.252,0 8.112,2.496 2.86,2.496 2.86,7.02 V 200 h -5.044 v -5.252 h -0.104 q -0.364,2.652 -2.652,4.212 -2.236,1.56 -5.876,1.56 z m 1.352,-4.316 q 3.276,0 5.2,-1.56 1.976,-1.612 1.976,-4.368 v -3.796 h -7.904 q -2.236,0 -3.64,1.352 -1.352,1.3 -1.352,3.484 0,2.236 1.508,3.588 1.508,1.3 4.212,1.3 z M 228.11609,200 v -28.6 h 5.096 v 5.512 h 0.052 q 0.416,-2.808 2.392,-4.42 2.028,-1.612 5.356,-1.612 4.42,0 6.864,2.756 2.444,2.704 2.444,7.644 v 2.496 h -5.148 v -2.444 q 0,-5.98 -5.876,-5.98 -2.964,0 -4.524,1.716 -1.508,1.716 -1.508,4.888 V 200 Z m 27.04803,0 v -28.6 h 4.368 v 3.9 h 0.156 q 0.208,-1.976 1.456,-3.172 1.3,-1.248 3.276,-1.248 1.924,0 3.224,1.144 1.3,1.144 1.872,3.068 v 0 q 0.312,-1.976 1.612,-3.068 1.3,-1.144 3.276,-1.144 2.704,0 4.368,2.08 1.664,2.028 1.664,5.304 V 200 h -4.68 v -21.684 q 0,-1.612 -0.832,-2.548 -0.78,-0.988 -2.132,-0.988 -1.352,0 -2.132,0.936 -0.78,0.936 -0.78,2.6 V 200 h -4.16 v -21.684 q 0,-1.612 -0.78,-2.548 -0.78,-0.988 -2.132,-0.988 -1.352,0 -2.184,0.936 -0.78,0.936 -0.78,2.6 V 200 Z m 61.01204,0 v -28.6 h 5.096 v 5.46 h 0.052 q 0.364,-2.808 2.34,-4.368 2.028,-1.612 5.304,-1.612 4.264,0 6.812,2.704 2.548,2.704 2.548,7.28 V 200 h -5.148 v -18.304 q 0,-3.12 -1.56,-4.784 -1.56,-1.664 -4.264,-1.664 -2.808,0 -4.42,1.768 -1.612,1.716 -1.612,4.836 V 200 Z m 40.72401,0.416 q -5.252,0 -8.372,-3.016 -3.068,-3.016 -3.068,-8.424 v -6.552 q 0,-5.408 3.068,-8.424 3.12,-3.016 8.372,-3.016 5.252,0 8.32,3.016 3.12,3.016 3.12,8.424 v 6.552 q 0,5.408 -3.12,8.424 -3.068,3.016 -8.32,3.016 z m 0,-4.524 q 2.912,0 4.576,-1.612 1.716,-1.664 1.716,-4.836 v -7.488 q 0,-3.172 -1.716,-4.784 -1.664,-1.664 -4.576,-1.664 -2.912,0 -4.628,1.664 -1.664,1.612 -1.664,4.784 v 7.488 q 0,3.172 1.664,4.836 1.716,1.612 4.628,1.612 z m 27.82801,4.628 q -4.316,0 -6.864,-2.86 -2.548,-2.912 -2.548,-7.852 v -8.216 q 0,-4.94 2.548,-7.8 2.548,-2.912 6.864,-2.912 3.172,0 5.252,1.612 2.132,1.612 2.6,4.42 v 0 l -0.104,-6.656 v -8.216 h 5.148 V 200 h -5.096 v -5.564 0 q -0.468,2.86 -2.548,4.472 -2.08,1.612 -5.252,1.612 z m 1.768,-4.472 q 2.756,0 4.368,-1.716 1.612,-1.716 1.612,-4.836 v -7.592 q 0,-3.12 -1.612,-4.836 -1.612,-1.716 -4.368,-1.716 -2.86,0 -4.472,1.508 -1.56,1.456 -1.56,4.784 v 8.112 q 0,3.328 1.56,4.836 1.612,1.456 4.472,1.456 z m 29.80405,4.472 q -5.148,0 -8.32,-3.068 -3.12,-3.068 -3.12,-8.372 v -6.76 q 0,-5.304 3.12,-8.372 3.172,-3.068 8.32,-3.068 3.432,0 5.98,1.404 2.6,1.352 4.004,3.848 1.456,2.444 1.456,5.72 V 187 h -17.836 v 2.496 q 0,3.12 1.716,4.888 1.716,1.768 4.68,1.768 2.496,0 4.108,-0.936 1.612,-0.936 1.924,-2.6 h 5.148 q -0.52,3.64 -3.588,5.772 -3.068,2.132 -7.592,2.132 z m -6.396,-18.668 v 1.352 h 12.792 v -1.352 q 0,-3.276 -1.664,-5.044 -1.664,-1.768 -4.732,-1.768 -3.068,0 -4.732,1.768 -1.664,1.768 -1.664,5.044 z"
     id="text7"
     style="font-weight:500;font-size:52px;letter-spacing:-1.5;fill:#d6d6cf"
     aria-label="A Swarm node" />
  <path
     d="m 80.032,246 -4.628,-28.6 h 4.368 l 2.808,19.5 q 0.156,1.3 0.312,2.808 0.156,1.508 0.208,2.444 0.104,-0.936 0.26,-2.444 0.156,-1.508 0.364,-2.808 l 3.432,-19.5 h 4.888 l 3.432,19.5 q 0.208,1.3 0.364,2.808 0.208,1.456 0.312,2.444 0.104,-0.988 0.26,-2.444 0.156,-1.508 0.312,-2.808 l 2.912,-19.5 h 4.16 L 98.96,246 h -5.512 l -3.172,-19.24 q -0.208,-1.404 -0.416,-3.12 -0.156,-1.716 -0.26,-2.704 -0.052,0.988 -0.312,2.704 -0.208,1.716 -0.416,3.12 L 85.596,246 Z m 29.28402,0 v -28.6 h 5.096 v 5.512 h 0.052 q 0.416,-2.808 2.392,-4.42 2.028,-1.612 5.356,-1.612 4.42,0 6.864,2.756 2.444,2.704 2.444,7.644 v 2.496 h -5.148 v -2.444 q 0,-5.98 -5.876,-5.98 -2.964,0 -4.524,1.716 -1.508,1.716 -1.508,4.888 V 246 Z m 28.40002,0 v -4.68 h 10.036 v -19.24 h -8.996 v -4.68 h 14.144 v 23.92 h 9.412 V 246 Z m 12.116,-33.644 q -1.768,0 -2.808,-0.884 -1.04,-0.936 -1.04,-2.496 0,-1.612 1.04,-2.548 1.04,-0.936 2.808,-0.936 1.768,0 2.808,0.936 1.04,0.936 1.04,2.548 0,1.56 -1.04,2.496 -1.04,0.884 -2.808,0.884 z M 181.56006,246 q -3.692,0 -5.876,-2.132 -2.132,-2.132 -2.132,-5.668 v -16.12 h -8.164 v -4.68 h 8.164 v -8.06 h 5.148 v 8.06 h 11.596 v 4.68 h -11.596 v 16.068 q 0,1.404 0.78,2.288 0.832,0.884 2.184,0.884 h 8.372 V 246 Z m 29.70002,0 q -3.692,0 -5.876,-2.132 -2.132,-2.132 -2.132,-5.668 v -16.12 h -8.164 v -4.68 h 8.164 v -8.06 h 5.148 v 8.06 h 11.596 v 4.68 h -11.596 v 16.068 q 0,1.404 0.78,2.288 0.832,0.884 2.184,0.884 h 8.372 V 246 Z m 26.84001,0.52 q -5.148,0 -8.32,-3.068 -3.12,-3.068 -3.12,-8.372 v -6.76 q 0,-5.304 3.12,-8.372 3.172,-3.068 8.32,-3.068 3.432,0 5.98,1.404 2.6,1.352 4.004,3.848 1.456,2.444 1.456,5.72 V 233 h -17.836 v 2.496 q 0,3.12 1.716,4.888 1.716,1.768 4.68,1.768 2.496,0 4.108,-0.936 1.612,-0.936 1.924,-2.6 h 5.148 q -0.52,3.64 -3.588,5.772 -3.068,2.132 -7.592,2.132 z m -6.396,-18.668 v 1.352 h 12.792 v -1.352 q 0,-3.276 -1.664,-5.044 -1.664,-1.768 -4.732,-1.768 -3.068,0 -4.732,1.768 -1.664,1.768 -1.664,5.044 z M 256.77612,246 v -28.6 h 5.096 v 5.46 h 0.052 q 0.364,-2.808 2.34,-4.368 2.028,-1.612 5.304,-1.612 4.264,0 6.812,2.704 2.548,2.704 2.548,7.28 V 246 h -5.148 v -18.304 q 0,-3.12 -1.56,-4.784 -1.56,-1.664 -4.264,-1.664 -2.808,0 -4.42,1.768 -1.612,1.716 -1.612,4.836 V 246 Z m 65.79604,0 v -20.02 h -8.216 v -4.68 h 8.216 v -5.772 q 0,-3.432 2.236,-5.46 2.236,-2.028 6.084,-2.028 h 8.372 v 4.628 h -8.372 q -3.172,0 -3.172,2.912 v 5.72 h 11.544 v 4.68 h -11.544 V 246 Z m 24.34401,0 v -28.6 h 5.096 v 5.512 h 0.052 q 0.416,-2.808 2.392,-4.42 2.028,-1.612 5.356,-1.612 4.42,0 6.864,2.756 2.444,2.704 2.444,7.644 v 2.496 h -5.148 v -2.444 q 0,-5.98 -5.876,-5.98 -2.964,0 -4.524,1.716 -1.508,1.716 -1.508,4.888 V 246 Z m 39.68401,0.416 q -5.252,0 -8.372,-3.016 -3.068,-3.016 -3.068,-8.424 v -6.552 q 0,-5.408 3.068,-8.424 3.12,-3.016 8.372,-3.016 5.252,0 8.32,3.016 3.12,3.016 3.12,8.424 v 6.552 q 0,5.408 -3.12,8.424 -3.068,3.016 -8.32,3.016 z m 0,-4.524 q 2.912,0 4.576,-1.612 1.716,-1.664 1.716,-4.836 v -7.488 q 0,-3.172 -1.716,-4.784 -1.664,-1.664 -4.576,-1.664 -2.912,0 -4.628,1.664 -1.664,1.612 -1.664,4.784 v 7.488 q 0,3.172 1.664,4.836 1.716,1.612 4.628,1.612 z M 403.66423,246 v -28.6 h 4.368 v 3.9 h 0.156 q 0.208,-1.976 1.456,-3.172 1.3,-1.248 3.276,-1.248 1.924,0 3.224,1.144 1.3,1.144 1.872,3.068 v 0 q 0.312,-1.976 1.612,-3.068 1.3,-1.144 3.276,-1.144 2.704,0 4.368,2.08 1.664,2.028 1.664,5.304 V 246 h -4.68 v -21.684 q 0,-1.612 -0.832,-2.548 -0.78,-0.988 -2.132,-0.988 -1.352,0 -2.132,0.936 -0.78,0.936 -0.78,2.6 V 246 h -4.16 v -21.684 q 0,-1.612 -0.78,-2.548 -0.78,-0.988 -2.132,-0.988 -1.352,0 -2.184,0.936 -0.78,0.936 -0.78,2.6 V 246 Z m 70.89202,0.416 q -4.888,0 -7.592,-2.184 -2.704,-2.184 -2.704,-6.136 h 5.096 q 0,1.872 1.352,2.964 1.404,1.04 3.848,1.04 h 2.288 q 2.548,0 3.9,-1.092 1.404,-1.092 1.404,-3.068 0,-3.484 -3.432,-3.9 l -7.696,-1.092 q -3.068,-0.468 -4.732,-2.496 -1.664,-2.08 -1.664,-5.356 0,-3.848 2.6,-5.98 2.6,-2.132 7.28,-2.132 h 2.288 q 4.368,0 7.072,2.08 2.704,2.08 2.86,5.512 h -5.2 q -0.104,-1.456 -1.352,-2.392 -1.248,-0.988 -3.38,-0.988 h -2.288 q -2.34,0 -3.64,1.04 -1.248,1.04 -1.248,2.808 0,2.86 2.86,3.224 l 7.228,1.04 q 7.436,0.988 7.436,8.632 0,4.056 -2.704,6.292 -2.652,2.184 -7.592,2.184 z m 31.26004,0.104 q -5.252,0 -8.424,-2.912 -3.172,-2.964 -3.172,-8.112 v -7.644 q 0,-5.096 3.172,-8.008 3.172,-2.964 8.424,-2.964 5.044,0 8.112,2.704 3.12,2.652 3.276,7.28 h -5.096 q -0.156,-2.6 -1.872,-4.004 -1.664,-1.456 -4.42,-1.456 -2.964,0 -4.732,1.716 -1.716,1.664 -1.716,4.732 v 7.644 q 0,3.12 1.716,4.784 1.768,1.664 4.732,1.664 2.808,0 4.472,-1.404 1.664,-1.404 1.82,-4.004 h 5.096 q -0.156,4.628 -3.276,7.332 -3.068,2.652 -8.112,2.652 z M 525.11631,246 v -28.6 h 5.096 v 5.512 h 0.052 q 0.416,-2.808 2.392,-4.42 2.028,-1.612 5.356,-1.612 4.42,0 6.864,2.756 2.444,2.704 2.444,7.644 v 2.496 h -5.148 v -2.444 q 0,-5.98 -5.876,-5.98 -2.964,0 -4.524,1.716 -1.508,1.716 -1.508,4.888 V 246 Z m 37.03201,0.52 q -4.42,0 -7.02,-2.444 -2.548,-2.496 -2.548,-6.5 0,-4.004 2.652,-6.448 2.704,-2.444 7.072,-2.444 h 8.372 V 226.5 q 0,-5.252 -5.824,-5.252 -2.6,0 -4.212,0.988 -1.56,0.936 -1.664,2.652 h -5.096 q 0.26,-3.484 3.172,-5.72 2.912,-2.288 7.8,-2.288 5.252,0 8.112,2.496 2.86,2.496 2.86,7.02 V 246 h -5.044 v -5.252 h -0.104 q -0.364,2.652 -2.652,4.212 -2.236,1.56 -5.876,1.56 z m 1.352,-4.316 q 3.276,0 5.2,-1.56 1.976,-1.612 1.976,-4.368 v -3.796 h -7.904 q -2.236,0 -3.64,1.352 -1.352,1.3 -1.352,3.484 0,2.236 1.508,3.588 1.508,1.3 4.212,1.3 z M 597.36033,246 q -3.692,0 -5.876,-2.132 -2.132,-2.132 -2.132,-5.668 v -16.12 h -8.164 v -4.68 h 8.164 v -8.06 h 5.148 v 8.06 h 11.596 v 4.68 h -11.596 v 16.068 q 0,1.404 0.78,2.288 0.832,0.884 2.184,0.884 h 8.372 V 246 Z m 27.25601,0.52 q -5.252,0 -8.424,-2.912 -3.172,-2.964 -3.172,-8.112 v -7.644 q 0,-5.096 3.172,-8.008 3.172,-2.964 8.424,-2.964 5.044,0 8.112,2.704 3.12,2.652 3.276,7.28 h -5.096 q -0.156,-2.6 -1.872,-4.004 -1.664,-1.456 -4.42,-1.456 -2.964,0 -4.732,1.716 -1.716,1.664 -1.716,4.732 v 7.644 q 0,3.12 1.716,4.784 1.768,1.664 4.732,1.664 2.808,0 4.472,-1.404 1.664,-1.404 1.82,-4.004 h 5.096 q -0.156,4.628 -3.276,7.332 -3.068,2.652 -8.112,2.652 z M 642.87635,246 v -37.96 h 5.148 v 9.36 l -0.052,5.46 h 0.052 q 0.364,-2.808 2.34,-4.368 2.028,-1.612 5.304,-1.612 4.264,0 6.812,2.704 2.548,2.704 2.548,7.28 V 246 h -5.148 v -18.356 q 0,-3.068 -1.56,-4.732 -1.56,-1.664 -4.264,-1.664 -2.808,0 -4.42,1.768 -1.612,1.716 -1.612,4.836 V 246 Z m 40.72402,0.52 q -1.976,0 -3.224,-1.196 -1.196,-1.196 -1.196,-3.068 0,-1.976 1.196,-3.224 1.248,-1.248 3.224,-1.248 1.976,0 3.172,1.248 1.248,1.248 1.248,3.224 0,1.872 -1.248,3.068 -1.196,1.196 -3.172,1.196 z"
     id="text8"
     style="font-weight:500;font-size:52px;letter-spacing:-1.5;fill:#a8d68a"
     aria-label="written from scratch." />
  <path
     d="m 75.104,294.16 v -8.76 h 1.08 v 1.26 h 0.012 q 0.084,-0.648 0.564,-1.008 0.48,-0.372 1.224,-0.372 0.996,0 1.584,0.66 0.588,0.648 0.588,1.788 v 1.932 q 0,1.14 -0.588,1.8 -0.588,0.66 -1.584,0.66 -0.744,0 -1.224,-0.372 -0.48,-0.372 -0.564,-1.008 H 76.16 l 0.024,1.5 v 1.92 z m 2.52,-2.976 q 0.684,0 1.068,-0.36 0.384,-0.36 0.384,-1.164 v -1.92 q 0,-0.816 -0.384,-1.164 -0.384,-0.36 -1.068,-0.36 -0.66,0 -1.056,0.42 -0.384,0.42 -0.384,1.164 v 1.8 q 0,0.744 0.384,1.164 0.396,0.42 1.056,0.42 z m 7.176005,0.912 q -1.188,0 -1.896,-0.696 -0.696,-0.696 -0.696,-1.944 v -1.512 q 0,-1.26 0.696,-1.944 0.696,-0.696 1.896,-0.696 1.2,0 1.896,0.696 0.696,0.684 0.696,1.944 v 1.512 q 0,1.248 -0.708,1.944 -0.696,0.696 -1.884,0.696 z m 0,-0.96 q 0.708,0 1.104,-0.396 0.408,-0.396 0.408,-1.164 v -1.752 q 0,-0.768 -0.408,-1.164 -0.396,-0.396 -1.104,-0.396 -0.696,0 -1.104,0.396 -0.408,0.396 -0.408,1.164 v 1.752 q 0,0.768 0.408,1.164 0.408,0.396 1.104,0.396 z m 6.936004,0.96 q -1.104,0 -1.716,-0.492 -0.6,-0.504 -0.6,-1.416 h 1.08 q 0,0.456 0.324,0.72 0.324,0.252 0.912,0.252 h 0.528 q 0.6,0 0.924,-0.264 0.336,-0.264 0.336,-0.744 0,-0.852 -0.78,-0.96 l -1.824,-0.264 q -0.672,-0.096 -1.044,-0.552 -0.372,-0.468 -0.372,-1.224 0,-0.864 0.588,-1.356 0.6,-0.492 1.644,-0.492 h 0.528 q 0.96,0 1.56,0.48 0.612,0.468 0.66,1.236 h -1.092 q -0.024,-0.348 -0.336,-0.576 -0.3,-0.228 -0.792,-0.228 h -0.528 q -0.552,0 -0.864,0.252 -0.312,0.252 -0.312,0.684 0,0.696 0.636,0.792 l 1.704,0.24 q 1.68,0.24 1.68,1.968 0,0.924 -0.612,1.44 -0.6,0.504 -1.704,0.504 z M 99.860014,292 q -0.816,0 -1.308,-0.468 -0.492,-0.48 -0.492,-1.272 v -3.876 h -1.896 V 285.4 h 1.896 v -1.86 h 1.08 v 1.86 h 2.699996 v 0.984 h -2.699996 v 3.876 q 0,0.336 0.192,0.552 0.204,0.204 0.528,0.204 h 1.919996 V 292 Z m 5.964006,0.12 q -1.02,0 -1.62,-0.564 -0.6,-0.576 -0.6,-1.5 0,-0.612 0.276,-1.068 0.276,-0.456 0.768,-0.708 0.492,-0.264 1.128,-0.264 h 2.04 V 287.5 q 0,-1.284 -1.404,-1.284 -0.624,0 -1.008,0.228 -0.384,0.228 -0.408,0.636 h -1.08 q 0.06,-0.78 0.72,-1.284 0.672,-0.516 1.776,-0.516 1.2,0 1.836,0.576 0.648,0.576 0.648,1.608 V 292 h -1.068 v -1.2 h -0.024 q -0.096,0.612 -0.612,0.972 -0.516,0.348 -1.368,0.348 z m 0.264,-0.912 q 0.792,0 1.26,-0.384 0.468,-0.384 0.468,-1.044 v -0.924 h -1.92 q -0.528,0 -0.864,0.324 -0.324,0.312 -0.324,0.84 0,0.552 0.36,0.876 0.372,0.312 1.02,0.312 z m 5.844,2.952 v -0.984 h 1.86 q 0.564,0 0.888,-0.324 0.324,-0.312 0.324,-0.852 v -0.6 l 0.024,-1.08 h -0.036 q -0.096,0.588 -0.564,0.912 -0.468,0.312 -1.176,0.312 -1.02,0 -1.608,-0.648 -0.588,-0.648 -0.588,-1.776 v -1.392 q 0,-1.128 0.588,-1.788 0.588,-0.66 1.608,-0.66 0.708,0 1.176,0.336 0.468,0.336 0.564,0.924 h 0.024 v -1.14 h 1.068 v 6.6 q 0,0.996 -0.624,1.572 -0.612,0.588 -1.68,0.588 z m 1.644,-3.516 q 0.672,0 1.056,-0.42 0.384,-0.42 0.384,-1.164 v -1.26 q 0,-0.744 -0.384,-1.164 -0.384,-0.42 -1.056,-0.42 -0.684,0 -1.068,0.396 -0.372,0.396 -0.372,1.068 v 1.5 q 0,0.672 0.372,1.068 0.384,0.396 1.068,0.396 z m 7.22401,1.476 q -1.164,0 -1.884,-0.696 -0.708,-0.708 -0.708,-1.944 v -1.56 q 0,-1.236 0.708,-1.932 0.72,-0.708 1.884,-0.708 0.78,0 1.356,0.312 0.588,0.312 0.912,0.876 0.324,0.564 0.324,1.332 v 1.176 h -4.128 v 0.624 q 0,0.732 0.42,1.164 0.42,0.42 1.116,0.42 0.6,0 0.984,-0.228 0.396,-0.24 0.48,-0.636 h 1.08 q -0.108,0.828 -0.804,1.32 -0.696,0.48 -1.74,0.48 z m -1.536,-3.984 h 3.072 V 287.8 q 0,-0.78 -0.408,-1.2 -0.396,-0.432 -1.128,-0.432 -0.732,0 -1.14,0.432 -0.396,0.42 -0.396,1.2 z m 15.67201,3.96 q -1.104,0 -1.716,-0.492 -0.6,-0.504 -0.6,-1.416 h 1.08 q 0,0.456 0.324,0.72 0.324,0.252 0.912,0.252 h 0.528 q 0.6,0 0.924,-0.264 0.336,-0.264 0.336,-0.744 0,-0.852 -0.78,-0.96 l -1.824,-0.264 q -0.672,-0.096 -1.044,-0.552 -0.372,-0.468 -0.372,-1.224 0,-0.864 0.588,-1.356 0.6,-0.492 1.644,-0.492 h 0.528 q 0.96,0 1.56,0.48 0.612,0.468 0.66,1.236 h -1.092 q -0.024,-0.348 -0.336,-0.576 -0.3,-0.228 -0.792,-0.228 h -0.528 q -0.552,0 -0.864,0.252 -0.312,0.252 -0.312,0.684 0,0.696 0.636,0.792 l 1.704,0.24 q 1.68,0.24 1.68,1.968 0,0.924 -0.612,1.44 -0.6,0.504 -1.704,0.504 z m 8.124,-0.096 q -0.816,0 -1.308,-0.468 -0.492,-0.48 -0.492,-1.272 v -3.876 h -1.896 V 285.4 h 1.896 v -1.86 h 1.08 v 1.86 h 2.7 v 0.984 h -2.7 v 3.876 q 0,0.336 0.192,0.552 0.204,0.204 0.528,0.204 h 1.92 V 292 Z m 5.96401,0.12 q -1.02,0 -1.62,-0.564 -0.6,-0.576 -0.6,-1.5 0,-0.612 0.276,-1.068 0.276,-0.456 0.768,-0.708 0.492,-0.264 1.128,-0.264 h 2.04 V 287.5 q 0,-1.284 -1.404,-1.284 -0.624,0 -1.008,0.228 -0.384,0.228 -0.408,0.636 h -1.08 q 0.06,-0.78 0.72,-1.284 0.672,-0.516 1.776,-0.516 1.2,0 1.836,0.576 0.648,0.576 0.648,1.608 V 292 h -1.068 v -1.2 h -0.024 q -0.096,0.612 -0.612,0.972 -0.516,0.348 -1.368,0.348 z m 0.264,-0.912 q 0.792,0 1.26,-0.384 0.468,-0.384 0.468,-1.044 v -0.924 h -1.92 q -0.528,0 -0.864,0.324 -0.324,0.312 -0.324,0.84 0,0.552 0.36,0.876 0.372,0.312 1.02,0.312 z m 4.632,0.792 v -6.6 h 0.936 v 0.876 h 0.024 q 0.06,-0.444 0.348,-0.72 0.3,-0.276 0.756,-0.276 0.432,0 0.732,0.252 0.3,0.252 0.432,0.684 h 0.012 q 0.084,-0.432 0.372,-0.684 0.3,-0.252 0.756,-0.252 0.636,0 1.008,0.48 0.384,0.468 0.384,1.224 V 292 h -1.008 v -5.028 q 0,-0.396 -0.192,-0.624 -0.192,-0.24 -0.528,-0.24 -0.324,0 -0.516,0.228 -0.192,0.228 -0.192,0.624 V 292 h -0.888 v -5.028 q 0,-0.396 -0.192,-0.624 -0.192,-0.24 -0.516,-0.24 -0.336,0 -0.528,0.228 -0.192,0.228 -0.192,0.624 V 292 Z m 7.584,2.16 v -8.76 h 1.08 v 1.26 h 0.012 q 0.084,-0.648 0.564,-1.008 0.48,-0.372 1.224,-0.372 0.996,0 1.584,0.66 0.588,0.648 0.588,1.788 v 1.932 q 0,1.14 -0.588,1.8 -0.588,0.66 -1.584,0.66 -0.744,0 -1.224,-0.372 -0.48,-0.372 -0.564,-1.008 h -0.036 l 0.024,1.5 v 1.92 z m 2.52,-2.976 q 0.684,0 1.068,-0.36 0.384,-0.36 0.384,-1.164 v -1.92 q 0,-0.816 -0.384,-1.164 -0.384,-0.36 -1.068,-0.36 -0.66,0 -1.056,0.42 -0.384,0.42 -0.384,1.164 v 1.8 q 0,0.744 0.384,1.164 0.396,0.42 1.056,0.42 z m 6.91201,0.912 q -1.104,0 -1.716,-0.492 -0.6,-0.504 -0.6,-1.416 h 1.08 q 0,0.456 0.324,0.72 0.324,0.252 0.912,0.252 h 0.528 q 0.6,0 0.924,-0.264 0.336,-0.264 0.336,-0.744 0,-0.852 -0.78,-0.96 l -1.824,-0.264 q -0.672,-0.096 -1.044,-0.552 -0.372,-0.468 -0.372,-1.224 0,-0.864 0.588,-1.356 0.6,-0.492 1.644,-0.492 h 0.528 q 0.96,0 1.56,0.48 0.612,0.468 0.66,1.236 h -1.092 q -0.024,-0.348 -0.336,-0.576 -0.3,-0.228 -0.792,-0.228 h -0.528 q -0.552,0 -0.864,0.252 -0.312,0.252 -0.312,0.684 0,0.696 0.636,0.792 l 1.704,0.24 q 1.68,0.24 1.68,1.968 0,0.924 -0.612,1.44 -0.6,0.504 -1.704,0.504 z m 14.66401,-3.216 q -0.444,0 -0.72,-0.264 -0.264,-0.264 -0.264,-0.684 0,-0.444 0.264,-0.72 0.276,-0.276 0.72,-0.276 0.444,0 0.708,0.276 0.276,0.276 0.276,0.72 0,0.42 -0.276,0.684 -0.264,0.264 -0.708,0.264 z m 11.90401,5.28 v -8.76 h 1.08 v 1.26 h 0.012 q 0.084,-0.648 0.564,-1.008 0.48,-0.372 1.224,-0.372 0.996,0 1.584,0.66 0.588,0.648 0.588,1.788 v 1.932 q 0,1.14 -0.588,1.8 -0.588,0.66 -1.584,0.66 -0.744,0 -1.224,-0.372 -0.48,-0.372 -0.564,-1.008 h -0.036 l 0.024,1.5 v 1.92 z m 2.52,-2.976 q 0.684,0 1.068,-0.36 0.384,-0.36 0.384,-1.164 v -1.92 q 0,-0.816 -0.384,-1.164 -0.384,-0.36 -1.068,-0.36 -0.66,0 -1.056,0.42 -0.384,0.42 -0.384,1.164 v 1.8 q 0,0.744 0.384,1.164 0.396,0.42 1.056,0.42 z m 7.164,0.936 q -1.14,0 -1.824,-0.672 -0.684,-0.684 -0.684,-1.848 v -4.2 h 1.08 v 4.2 q 0,0.72 0.384,1.152 0.384,0.42 1.044,0.42 0.672,0 1.056,-0.42 0.396,-0.432 0.396,-1.152 v -4.2 h 1.08 v 4.2 q 0,1.164 -0.696,1.848 -0.696,0.672 -1.836,0.672 z m 6.948,-0.024 q -1.104,0 -1.716,-0.492 -0.6,-0.504 -0.6,-1.416 h 1.08 q 0,0.456 0.324,0.72 0.324,0.252 0.912,0.252 h 0.528 q 0.6,0 0.924,-0.264 0.336,-0.264 0.336,-0.744 0,-0.852 -0.78,-0.96 l -1.824,-0.264 q -0.672,-0.096 -1.044,-0.552 -0.372,-0.468 -0.372,-1.224 0,-0.864 0.588,-1.356 0.6,-0.492 1.644,-0.492 h 0.528 q 0.96,0 1.56,0.48 0.612,0.468 0.66,1.236 h -1.092 q -0.024,-0.348 -0.336,-0.576 -0.3,-0.228 -0.792,-0.228 h -0.528 q -0.552,0 -0.864,0.252 -0.312,0.252 -0.312,0.684 0,0.696 0.636,0.792 l 1.704,0.24 q 1.68,0.24 1.68,1.968 0,0.924 -0.612,1.44 -0.6,0.504 -1.704,0.504 z M 219.10409,292 v -8.76 h 1.08 v 3.42 h 0.012 q 0.084,-0.66 0.54,-1.02 0.456,-0.36 1.212,-0.36 0.996,0 1.584,0.612 0.588,0.612 0.588,1.668 V 292 h -1.08 v -4.26 q 0,-0.744 -0.384,-1.14 -0.372,-0.408 -1.02,-0.408 -0.672,0 -1.068,0.42 -0.384,0.42 -0.384,1.188 v 4.2 z m 6.99601,1.32 4.26,-11.28 h 1.14 l -4.26,11.28 z m 7.404,0.84 v -8.76 h 1.08 v 1.26 h 0.012 q 0.084,-0.648 0.564,-1.008 0.48,-0.372 1.224,-0.372 0.996,0 1.584,0.66 0.588,0.648 0.588,1.788 v 1.932 q 0,1.14 -0.588,1.8 -0.588,0.66 -1.584,0.66 -0.744,0 -1.224,-0.372 -0.48,-0.372 -0.564,-1.008 h -0.036 l 0.024,1.5 v 1.92 z m 2.52,-2.976 q 0.684,0 1.068,-0.36 0.384,-0.36 0.384,-1.164 v -1.92 q 0,-0.816 -0.384,-1.164 -0.384,-0.36 -1.068,-0.36 -0.66,0 -1.056,0.42 -0.384,0.42 -0.384,1.164 v 1.8 q 0,0.744 0.384,1.164 0.396,0.42 1.056,0.42 z m 7.164,0.936 q -1.14,0 -1.824,-0.672 -0.684,-0.684 -0.684,-1.848 v -4.2 h 1.08 v 4.2 q 0,0.72 0.384,1.152 0.384,0.42 1.044,0.42 0.672,0 1.056,-0.42 0.396,-0.432 0.396,-1.152 v -4.2 h 1.08 v 4.2 q 0,1.164 -0.696,1.848 -0.696,0.672 -1.836,0.672 z m 8.17201,-0.12 q -0.876,0 -1.404,-0.504 -0.516,-0.516 -0.516,-1.356 v -5.916 h -2.28 v -0.984 h 3.36 v 6.9 q 0,0.408 0.228,0.648 0.228,0.228 0.612,0.228 h 2.04 V 292 Z m 7.20001,0 q -0.876,0 -1.404,-0.504 -0.516,-0.516 -0.516,-1.356 v -5.916 h -2.28 v -0.984 h 3.36 v 6.9 q 0,0.408 0.228,0.648 0.228,0.228 0.612,0.228 h 2.04 V 292 Z m 13.176,0.096 q -1.104,0 -1.716,-0.492 -0.6,-0.504 -0.6,-1.416 h 1.08 q 0,0.456 0.324,0.72 0.324,0.252 0.912,0.252 h 0.528 q 0.6,0 0.924,-0.264 0.336,-0.264 0.336,-0.744 0,-0.852 -0.78,-0.96 l -1.824,-0.264 q -0.672,-0.096 -1.044,-0.552 -0.372,-0.468 -0.372,-1.224 0,-0.864 0.588,-1.356 0.6,-0.492 1.644,-0.492 h 0.528 q 0.96,0 1.56,0.48 0.612,0.468 0.66,1.236 h -1.092 q -0.024,-0.348 -0.336,-0.576 -0.3,-0.228 -0.792,-0.228 h -0.528 q -0.552,0 -0.864,0.252 -0.312,0.252 -0.312,0.684 0,0.696 0.636,0.792 l 1.704,0.24 q 1.68,0.24 1.68,1.968 0,0.924 -0.612,1.44 -0.6,0.504 -1.704,0.504 z m 6.00001,2.064 0.972,-2.568 -2.46,-6.192 h 1.164 l 1.56,4.08 q 0.096,0.24 0.18,0.504 0.084,0.264 0.12,0.456 0.036,-0.192 0.12,-0.456 0.084,-0.264 0.168,-0.504 l 1.452,-4.08 h 1.14 l -3.288,8.76 z m 6.16801,-2.16 v -6.6 h 1.08 v 1.26 h 0.012 q 0.084,-0.66 0.54,-1.02 0.456,-0.36 1.212,-0.36 0.996,0 1.584,0.612 0.588,0.612 0.588,1.668 V 292 h -1.08 v -4.248 q 0,-0.756 -0.384,-1.152 -0.372,-0.408 -1.02,-0.408 -0.672,0 -1.068,0.42 -0.384,0.42 -0.384,1.188 v 4.2 z m 9.792,0.12 q -1.2,0 -1.92,-0.672 -0.72,-0.672 -0.72,-1.848 v -1.8 q 0,-1.176 0.72,-1.848 0.72,-0.672 1.92,-0.672 1.14,0 1.836,0.612 0.708,0.612 0.744,1.668 h -1.08 q -0.036,-0.636 -0.432,-0.972 -0.396,-0.348 -1.068,-0.348 -0.708,0 -1.14,0.408 -0.42,0.396 -0.42,1.14 v 1.812 q 0,0.744 0.42,1.152 0.432,0.408 1.14,0.408 0.672,0 1.068,-0.348 0.396,-0.348 0.432,-0.972 h 1.08 q -0.036,1.056 -0.744,1.668 -0.696,0.612 -1.836,0.612 z m 14.30401,-3.24 q -0.444,0 -0.72,-0.264 -0.264,-0.264 -0.264,-0.684 0,-0.444 0.264,-0.72 0.276,-0.276 0.72,-0.276 0.444,0 0.708,0.276 0.276,0.276 0.276,0.72 0,0.42 -0.276,0.684 -0.264,0.264 -0.708,0.264 z m 14.13601,3.216 q -1.104,0 -1.716,-0.492 -0.6,-0.504 -0.6,-1.416 h 1.08 q 0,0.456 0.324,0.72 0.324,0.252 0.912,0.252 h 0.528 q 0.6,0 0.924,-0.264 0.336,-0.264 0.336,-0.744 0,-0.852 -0.78,-0.96 l -1.824,-0.264 q -0.672,-0.096 -1.044,-0.552 -0.372,-0.468 -0.372,-1.224 0,-0.864 0.588,-1.356 0.6,-0.492 1.644,-0.492 h 0.528 q 0.96,0 1.56,0.48 0.612,0.468 0.66,1.236 h -1.092 q -0.024,-0.348 -0.336,-0.576 -0.3,-0.228 -0.792,-0.228 h -0.528 q -0.552,0 -0.864,0.252 -0.312,0.252 -0.312,0.684 0,0.696 0.636,0.792 l 1.704,0.24 q 1.68,0.24 1.68,1.968 0,0.924 -0.612,1.44 -0.6,0.504 -1.704,0.504 z M 330.26015,292 q -0.816,0 -1.308,-0.468 -0.492,-0.48 -0.492,-1.272 v -3.876 h -1.896 V 285.4 h 1.896 v -1.86 h 1.08 v 1.86 h 2.7 v 0.984 h -2.7 v 3.876 q 0,0.336 0.192,0.552 0.204,0.204 0.528,0.204 h 1.92 V 292 Z m 6.54001,0.096 q -1.188,0 -1.896,-0.696 -0.696,-0.696 -0.696,-1.944 v -1.512 q 0,-1.26 0.696,-1.944 0.696,-0.696 1.896,-0.696 1.2,0 1.896,0.696 0.696,0.684 0.696,1.944 v 1.512 q 0,1.248 -0.708,1.944 -0.696,0.696 -1.884,0.696 z m 0,-0.96 q 0.708,0 1.104,-0.396 0.408,-0.396 0.408,-1.164 v -1.752 q 0,-0.768 -0.408,-1.164 -0.396,-0.396 -1.104,-0.396 -0.696,0 -1.104,0.396 -0.408,0.396 -0.408,1.164 v 1.752 q 0,0.768 0.408,1.164 0.408,0.396 1.104,0.396 z m 4.94402,0.864 v -6.6 h 1.08 v 1.26 h 0.024 q 0.084,-0.636 0.54,-1.008 0.456,-0.372 1.224,-0.372 1.032,0 1.584,0.624 0.564,0.612 0.564,1.752 v 0.564 h -1.08 v -0.564 q 0,-1.44 -1.404,-1.44 -0.708,0 -1.08,0.408 -0.372,0.408 -0.372,1.176 v 4.2 z m 8.87998,0.12 q -1.02,0 -1.62,-0.564 -0.6,-0.576 -0.6,-1.5 0,-0.612 0.276,-1.068 0.276,-0.456 0.768,-0.708 0.492,-0.264 1.128,-0.264 h 2.04 V 287.5 q 0,-1.284 -1.404,-1.284 -0.624,0 -1.008,0.228 -0.384,0.228 -0.408,0.636 h -1.08 q 0.06,-0.78 0.72,-1.284 0.672,-0.516 1.776,-0.516 1.2,0 1.836,0.576 0.648,0.576 0.648,1.608 V 292 h -1.068 v -1.2 h -0.024 q -0.096,0.612 -0.612,0.972 -0.516,0.348 -1.368,0.348 z m 0.264,-0.912 q 0.792,0 1.26,-0.384 0.468,-0.384 0.468,-1.044 v -0.924 h -1.92 q -0.528,0 -0.864,0.324 -0.324,0.312 -0.324,0.84 0,0.552 0.36,0.876 0.372,0.312 1.02,0.312 z m 5.84401,2.952 v -0.984 h 1.86 q 0.564,0 0.888,-0.324 0.324,-0.312 0.324,-0.852 v -0.6 l 0.024,-1.08 h -0.036 q -0.096,0.588 -0.564,0.912 -0.468,0.312 -1.176,0.312 -1.02,0 -1.608,-0.648 -0.588,-0.648 -0.588,-1.776 v -1.392 q 0,-1.128 0.588,-1.788 0.588,-0.66 1.608,-0.66 0.708,0 1.176,0.336 0.468,0.336 0.564,0.924 h 0.024 v -1.14 h 1.068 v 6.6 q 0,0.996 -0.624,1.572 -0.612,0.588 -1.68,0.588 z m 1.644,-3.516 q 0.672,0 1.056,-0.42 0.384,-0.42 0.384,-1.164 v -1.26 q 0,-0.744 -0.384,-1.164 -0.384,-0.42 -1.056,-0.42 -0.684,0 -1.068,0.396 -0.372,0.396 -0.372,1.068 v 1.5 q 0,0.672 0.372,1.068 0.384,0.396 1.068,0.396 z m 7.22401,1.476 q -1.164,0 -1.884,-0.696 -0.708,-0.708 -0.708,-1.944 v -1.56 q 0,-1.236 0.708,-1.932 0.72,-0.708 1.884,-0.708 0.78,0 1.356,0.312 0.588,0.312 0.912,0.876 0.324,0.564 0.324,1.332 v 1.176 h -4.128 v 0.624 q 0,0.732 0.42,1.164 0.42,0.42 1.116,0.42 0.6,0 0.984,-0.228 0.396,-0.24 0.48,-0.636 h 1.08 q -0.108,0.828 -0.804,1.32 -0.696,0.48 -1.74,0.48 z m -1.536,-3.984 h 3.072 V 287.8 q 0,-0.78 -0.408,-1.2 -0.396,-0.432 -1.128,-0.432 -0.732,0 -1.14,0.432 -0.396,0.42 -0.396,1.2 z M 377.42021,292 v -0.984 h 2.34 v -4.632 h -2.1 V 285.4 h 3.18 v 5.616 h 2.22 V 292 Z m 2.76,-7.788 q -0.396,0 -0.624,-0.204 -0.228,-0.204 -0.228,-0.552 0,-0.36 0.228,-0.564 0.228,-0.216 0.624,-0.216 0.396,0 0.624,0.216 0.228,0.204 0.228,0.564 0,0.348 -0.228,0.552 -0.228,0.204 -0.624,0.204 z m 4.52398,7.788 v -6.6 h 1.08 v 1.26 h 0.012 q 0.084,-0.66 0.54,-1.02 0.456,-0.36 1.212,-0.36 0.996,0 1.584,0.612 0.588,0.612 0.588,1.668 V 292 h -1.08 v -4.248 q 0,-0.756 -0.384,-1.152 -0.372,-0.408 -1.02,-0.408 -0.672,0 -1.068,0.42 -0.384,0.42 -0.384,1.188 v 4.2 z m 9.79201,0.12 q -1.2,0 -1.92,-0.672 -0.72,-0.672 -0.72,-1.848 v -1.8 q 0,-1.176 0.72,-1.848 0.72,-0.672 1.92,-0.672 1.14,0 1.836,0.612 0.708,0.612 0.744,1.668 h -1.08 q -0.036,-0.636 -0.432,-0.972 -0.396,-0.348 -1.068,-0.348 -0.708,0 -1.14,0.408 -0.42,0.396 -0.42,1.14 v 1.812 q 0,0.744 0.42,1.152 0.432,0.408 1.14,0.408 0.672,0 1.068,-0.348 0.396,-0.348 0.432,-0.972 h 1.08 q -0.036,1.056 -0.744,1.668 -0.696,0.612 -1.836,0.612 z m 7.10401,0 q -1.164,0 -1.884,-0.696 -0.708,-0.708 -0.708,-1.944 v -1.56 q 0,-1.236 0.708,-1.932 0.72,-0.708 1.884,-0.708 0.78,0 1.356,0.312 0.588,0.312 0.912,0.876 0.324,0.564 0.324,1.332 v 1.176 h -4.128 v 0.624 q 0,0.732 0.42,1.164 0.42,0.42 1.116,0.42 0.6,0 0.984,-0.228 0.396,-0.24 0.48,-0.636 h 1.08 q -0.108,0.828 -0.804,1.32 -0.696,0.48 -1.74,0.48 z m -1.536,-3.984 h 3.072 V 287.8 q 0,-0.78 -0.408,-1.2 -0.396,-0.432 -1.128,-0.432 -0.732,0 -1.14,0.432 -0.396,0.42 -0.396,1.2 z M 406.3042,292 v -6.6 h 1.08 v 1.26 h 0.012 q 0.084,-0.66 0.54,-1.02 0.456,-0.36 1.212,-0.36 0.996,0 1.584,0.612 0.588,0.612 0.588,1.668 V 292 h -1.08 v -4.248 q 0,-0.756 -0.384,-1.152 -0.372,-0.408 -1.02,-0.408 -0.672,0 -1.068,0.42 -0.384,0.42 -0.384,1.188 v 4.2 z m 10.35601,0 q -0.816,0 -1.308,-0.468 -0.492,-0.48 -0.492,-1.272 v -3.876 h -1.896 V 285.4 h 1.896 v -1.86 h 1.08 v 1.86 h 2.7 v 0.984 h -2.7 v 3.876 q 0,0.336 0.192,0.552 0.204,0.204 0.528,0.204 h 1.92 V 292 Z m 3.96001,0 v -0.984 h 2.34 v -4.632 h -2.1 V 285.4 h 3.18 v 5.616 h 2.22 V 292 Z m 2.76,-7.788 q -0.396,0 -0.624,-0.204 -0.228,-0.204 -0.228,-0.552 0,-0.36 0.228,-0.564 0.228,-0.216 0.624,-0.216 0.396,0 0.624,0.216 0.228,0.204 0.228,0.564 0,0.348 -0.228,0.552 -0.228,0.204 -0.624,0.204 z m 6.31201,7.788 -2.244,-6.6 h 1.164 l 1.44,4.44 q 0.132,0.396 0.228,0.768 0.096,0.36 0.144,0.564 0.06,-0.204 0.144,-0.564 0.084,-0.372 0.204,-0.768 l 1.44,-4.44 h 1.14 l -2.244,6.6 z m 7.90801,0.12 q -1.164,0 -1.884,-0.696 -0.708,-0.708 -0.708,-1.944 v -1.56 q 0,-1.236 0.708,-1.932 0.72,-0.708 1.884,-0.708 0.78,0 1.356,0.312 0.588,0.312 0.912,0.876 0.324,0.564 0.324,1.332 v 1.176 h -4.128 v 0.624 q 0,0.732 0.42,1.164 0.42,0.42 1.116,0.42 0.6,0 0.984,-0.228 0.396,-0.24 0.48,-0.636 h 1.08 q -0.108,0.828 -0.804,1.32 -0.696,0.48 -1.74,0.48 z m -1.536,-3.984 h 3.072 V 287.8 q 0,-0.78 -0.408,-1.2 -0.396,-0.432 -1.128,-0.432 -0.732,0 -1.14,0.432 -0.396,0.42 -0.396,1.2 z m 8.47199,3.96 q -1.104,0 -1.716,-0.492 -0.6,-0.504 -0.6,-1.416 h 1.08 q 0,0.456 0.324,0.72 0.324,0.252 0.912,0.252 h 0.528 q 0.6,0 0.924,-0.264 0.336,-0.264 0.336,-0.744 0,-0.852 -0.78,-0.96 l -1.824,-0.264 q -0.672,-0.096 -1.044,-0.552 -0.372,-0.468 -0.372,-1.224 0,-0.864 0.588,-1.356 0.6,-0.492 1.644,-0.492 h 0.528 q 0.96,0 1.56,0.48 0.612,0.468 0.66,1.236 h -1.092 q -0.024,-0.348 -0.336,-0.576 -0.3,-0.228 -0.792,-0.228 h -0.528 q -0.552,0 -0.864,0.252 -0.312,0.252 -0.312,0.684 0,0.696 0.636,0.792 l 1.704,0.24 q 1.68,0.24 1.68,1.968 0,0.924 -0.612,1.44 -0.6,0.504 -1.704,0.504 z"
     id="text9"
     style="font-size:12px;fill:#5e7c4e"
     aria-label="postage stamps · push/pull sync · storage incentives" />
  <path
     d="m 74.72,306 v -6.6 h 0.936 v 0.876 h 0.024 q 0.06,-0.444 0.348,-0.72 0.3,-0.276 0.756,-0.276 0.432,0 0.732,0.252 0.3,0.252 0.432,0.684 h 0.012 q 0.084,-0.432 0.372,-0.684 0.3,-0.252 0.756,-0.252 0.636,0 1.008,0.48 0.384,0.468 0.384,1.224 V 306 h -1.008 v -5.028 q 0,-0.396 -0.192,-0.624 -0.192,-0.24 -0.528,-0.24 -0.324,0 -0.516,0.228 -0.192,0.228 -0.192,0.624 V 306 h -0.888 v -5.028 q 0,-0.396 -0.192,-0.624 -0.192,-0.24 -0.516,-0.24 -0.336,0 -0.528,0.228 -0.192,0.228 -0.192,0.624 V 306 Z m 10.080005,0.096 q -1.188,0 -1.896,-0.696 -0.696,-0.696 -0.696,-1.944 v -1.512 q 0,-1.26 0.696,-1.944 0.696,-0.696 1.896,-0.696 1.2,0 1.896,0.696 0.696,0.684 0.696,1.944 v 1.512 q 0,1.248 -0.708,1.944 -0.696,0.696 -1.884,0.696 z m 0,-0.96 q 0.708,0 1.104,-0.396 0.408,-0.396 0.408,-1.164 v -1.752 q 0,-0.768 -0.408,-1.164 -0.396,-0.396 -1.104,-0.396 -0.696,0 -1.104,0.396 -0.408,0.396 -0.408,1.164 v 1.752 q 0,0.768 0.408,1.164 0.408,0.396 1.104,0.396 z m 6.816004,0.984 q -0.984,0 -1.584,-0.66 -0.588,-0.66 -0.588,-1.788 v -1.932 q 0,-1.14 0.588,-1.8 0.588,-0.66 1.584,-0.66 0.744,0 1.224,0.372 0.492,0.372 0.588,1.008 h 0.012 l -0.024,-1.5 v -1.92 h 1.08 V 306 h -1.08 v -1.26 h -0.012 q -0.084,0.648 -0.564,1.02 -0.48,0.36 -1.224,0.36 z m 0.36,-0.936 q 0.672,0 1.056,-0.42 0.384,-0.42 0.384,-1.164 v -1.8 q 0,-0.744 -0.384,-1.164 -0.384,-0.42 -1.056,-0.42 -0.684,0 -1.068,0.36 -0.384,0.348 -0.384,1.164 v 1.92 q 0,0.804 0.384,1.164 0.384,0.36 1.068,0.36 z m 7.212005,0.936 q -1.14,0 -1.824,-0.672 -0.684,-0.684 -0.684,-1.848 v -4.2 h 1.08 v 4.2 q 0,0.72 0.384,1.152 0.384,0.42 1.044,0.42 0.672,0 1.055996,-0.42 0.396,-0.432 0.396,-1.152 v -4.2 h 1.08 v 4.2 q 0,1.164 -0.696,1.848 -0.696,0.672 -1.835996,0.672 z M 107.36002,306 q -0.876,0 -1.404,-0.504 -0.516,-0.516 -0.516,-1.356 v -5.916 h -2.28 v -0.984 h 3.36 v 6.9 q 0,0.408 0.228,0.648 0.228,0.228 0.612,0.228 h 2.04 V 306 Z m 5.664,0.12 q -1.02,0 -1.62,-0.564 -0.6,-0.576 -0.6,-1.5 0,-0.612 0.276,-1.068 0.276,-0.456 0.768,-0.708 0.492,-0.264 1.128,-0.264 h 2.04 V 301.5 q 0,-1.284 -1.404,-1.284 -0.624,0 -1.008,0.228 -0.384,0.228 -0.408,0.636 h -1.08 q 0.06,-0.78 0.72,-1.284 0.672,-0.516 1.776,-0.516 1.2,0 1.836,0.576 0.648,0.576 0.648,1.608 V 306 h -1.068 v -1.2 h -0.024 q -0.096,0.612 -0.612,0.972 -0.516,0.348 -1.368,0.348 z m 0.264,-0.912 q 0.792,0 1.26,-0.384 0.468,-0.384 0.468,-1.044 v -0.924 h -1.92 q -0.528,0 -0.864,0.324 -0.324,0.312 -0.324,0.84 0,0.552 0.36,0.876 0.372,0.312 1.02,0.312 z m 5.25601,0.792 v -6.6 h 1.08 v 1.26 h 0.024 q 0.084,-0.636 0.54,-1.008 0.456,-0.372 1.224,-0.372 1.032,0 1.584,0.624 0.564,0.612 0.564,1.752 v 0.564 h -1.08 v -0.564 q 0,-1.44 -1.404,-1.44 -0.708,0 -1.08,0.408 -0.372,0.408 -0.372,1.176 v 4.2 z m 16.75201,0.12 q -1.2,0 -1.92,-0.672 -0.72,-0.672 -0.72,-1.848 v -1.8 q 0,-1.176 0.72,-1.848 0.72,-0.672 1.92,-0.672 1.14,0 1.836,0.612 0.708,0.612 0.744,1.668 h -1.08 q -0.036,-0.636 -0.432,-0.972 -0.396,-0.348 -1.068,-0.348 -0.708,0 -1.14,0.408 -0.42,0.396 -0.42,1.14 v 1.812 q 0,0.744 0.42,1.152 0.432,0.408 1.14,0.408 0.672,0 1.068,-0.348 0.396,-0.348 0.432,-0.972 h 1.08 q -0.036,1.056 -0.744,1.668 -0.696,0.612 -1.836,0.612 z m 4.848,-0.12 v -6.6 h 1.08 v 1.26 h 0.024 q 0.084,-0.636 0.54,-1.008 0.456,-0.372 1.224,-0.372 1.032,0 1.584,0.624 0.564,0.612 0.564,1.752 v 0.564 h -1.08 v -0.564 q 0,-1.44 -1.404,-1.44 -0.708,0 -1.08,0.408 -0.372,0.408 -0.372,1.176 v 4.2 z m 8.88001,0.12 q -1.02,0 -1.62,-0.564 -0.6,-0.576 -0.6,-1.5 0,-0.612 0.276,-1.068 0.276,-0.456 0.768,-0.708 0.492,-0.264 1.128,-0.264 h 2.04 V 301.5 q 0,-1.284 -1.404,-1.284 -0.624,0 -1.008,0.228 -0.384,0.228 -0.408,0.636 h -1.08 q 0.06,-0.78 0.72,-1.284 0.672,-0.516 1.776,-0.516 1.2,0 1.836,0.576 0.648,0.576 0.648,1.608 V 306 h -1.068 v -1.2 h -0.024 q -0.096,0.612 -0.612,0.972 -0.516,0.348 -1.368,0.348 z m 0.264,-0.912 q 0.792,0 1.26,-0.384 0.468,-0.384 0.468,-1.044 v -0.924 h -1.92 q -0.528,0 -0.864,0.324 -0.324,0.312 -0.324,0.84 0,0.552 0.36,0.876 0.372,0.312 1.02,0.312 z m 8.172,0.792 q -0.816,0 -1.308,-0.468 -0.492,-0.48 -0.492,-1.272 v -3.876 h -1.896 V 299.4 h 1.896 v -1.86 h 1.08 v 1.86 h 2.7 v 0.984 h -2.7 v 3.876 q 0,0.336 0.192,0.552 0.204,0.204 0.528,0.204 h 1.92 V 306 Z m 6.54,0.12 q -1.164,0 -1.884,-0.696 -0.708,-0.708 -0.708,-1.944 v -1.56 q 0,-1.236 0.708,-1.932 0.72,-0.708 1.884,-0.708 0.78,0 1.356,0.312 0.588,0.312 0.912,0.876 0.324,0.564 0.324,1.332 v 1.176 h -4.128 v 0.624 q 0,0.732 0.42,1.164 0.42,0.42 1.116,0.42 0.6,0 0.984,-0.228 0.396,-0.24 0.48,-0.636 h 1.08 q -0.108,0.828 -0.804,1.32 -0.696,0.48 -1.74,0.48 z m -1.536,-3.984 h 3.072 V 301.8 q 0,-0.78 -0.408,-1.2 -0.396,-0.432 -1.128,-0.432 -0.732,0 -1.14,0.432 -0.396,0.42 -0.396,1.2 z m 8.47201,3.96 q -1.104,0 -1.716,-0.492 -0.6,-0.504 -0.6,-1.416 h 1.08 q 0,0.456 0.324,0.72 0.324,0.252 0.912,0.252 h 0.528 q 0.6,0 0.924,-0.264 0.336,-0.264 0.336,-0.744 0,-0.852 -0.78,-0.96 l -1.824,-0.264 q -0.672,-0.096 -1.044,-0.552 -0.372,-0.468 -0.372,-1.224 0,-0.864 0.588,-1.356 0.6,-0.492 1.644,-0.492 h 0.528 q 0.96,0 1.56,0.48 0.612,0.468 0.66,1.236 h -1.092 q -0.024,-0.348 -0.336,-0.576 -0.3,-0.228 -0.792,-0.228 h -0.528 q -0.552,0 -0.864,0.252 -0.312,0.252 -0.312,0.684 0,0.696 0.636,0.792 l 1.704,0.24 q 1.68,0.24 1.68,1.968 0,0.924 -0.612,1.44 -0.6,0.504 -1.704,0.504 z m 14.66401,-3.216 q -0.444,0 -0.72,-0.264 -0.264,-0.264 -0.264,-0.684 0,-0.444 0.264,-0.72 0.276,-0.276 0.72,-0.276 0.444,0 0.708,0.276 0.276,0.276 0.276,0.72 0,0.42 -0.276,0.684 -0.264,0.264 -0.708,0.264 z m 14.49601,3.24 q -1.2,0 -1.92,-0.672 -0.72,-0.672 -0.72,-1.848 v -1.8 q 0,-1.176 0.72,-1.848 0.72,-0.672 1.92,-0.672 1.14,0 1.836,0.612 0.708,0.612 0.744,1.668 h -1.08 q -0.036,-0.636 -0.432,-0.972 -0.396,-0.348 -1.068,-0.348 -0.708,0 -1.14,0.408 -0.42,0.396 -0.42,1.14 v 1.812 q 0,0.744 0.42,1.152 0.432,0.408 1.14,0.408 0.672,0 1.068,-0.348 0.396,-0.348 0.432,-0.972 h 1.08 q -0.036,1.056 -0.744,1.668 -0.696,0.612 -1.836,0.612 z m 8.064,-0.12 q -0.876,0 -1.404,-0.504 -0.516,-0.516 -0.516,-1.356 v -5.916 h -2.28 v -0.984 h 3.36 v 6.9 q 0,0.408 0.228,0.648 0.228,0.228 0.612,0.228 h 2.04 V 306 Z m 3.66,0 v -0.984 h 2.34 v -4.632 h -2.1 V 299.4 h 3.18 v 5.616 h 2.22 V 306 Z m 2.76,-7.788 q -0.396,0 -0.624,-0.204 -0.228,-0.204 -0.228,-0.552 0,-0.36 0.228,-0.564 0.228,-0.216 0.624,-0.216 0.396,0 0.624,0.216 0.228,0.204 0.228,0.564 0,0.348 -0.228,0.552 -0.228,0.204 -0.624,0.204 z m 7.02001,7.908 q -1.164,0 -1.884,-0.696 -0.708,-0.708 -0.708,-1.944 v -1.56 q 0,-1.236 0.708,-1.932 0.72,-0.708 1.884,-0.708 0.78,0 1.356,0.312 0.588,0.312 0.912,0.876 0.324,0.564 0.324,1.332 v 1.176 h -4.128 v 0.624 q 0,0.732 0.42,1.164 0.42,0.42 1.116,0.42 0.6,0 0.984,-0.228 0.396,-0.24 0.48,-0.636 h 1.08 q -0.108,0.828 -0.804,1.32 -0.696,0.48 -1.74,0.48 z m -1.536,-3.984 h 3.072 V 301.8 q 0,-0.78 -0.408,-1.2 -0.396,-0.432 -1.128,-0.432 -0.732,0 -1.14,0.432 -0.396,0.42 -0.396,1.2 z M 226.3041,306 v -6.6 h 1.08 v 1.26 h 0.012 q 0.084,-0.66 0.54,-1.02 0.456,-0.36 1.212,-0.36 0.996,0 1.584,0.612 0.588,0.612 0.588,1.668 V 306 h -1.08 v -4.248 q 0,-0.756 -0.384,-1.152 -0.372,-0.408 -1.02,-0.408 -0.672,0 -1.068,0.42 -0.384,0.42 -0.384,1.188 v 4.2 z m 10.356,0 q -0.816,0 -1.308,-0.468 -0.492,-0.48 -0.492,-1.272 v -3.876 h -1.896 V 299.4 h 1.896 v -1.86 h 1.08 v 1.86 h 2.7 v 0.984 h -2.7 v 3.876 q 0,0.336 0.192,0.552 0.204,0.204 0.528,0.204 h 1.92 V 306 Z m 13.35601,0.12 q -0.984,0 -1.584,-0.66 -0.588,-0.66 -0.588,-1.788 v -1.932 q 0,-1.14 0.588,-1.8 0.588,-0.66 1.584,-0.66 0.744,0 1.224,0.372 0.492,0.372 0.588,1.008 h 0.012 l -0.024,-1.5 v -1.92 h 1.08 V 306 h -1.08 v -1.26 h -0.012 q -0.084,0.648 -0.564,1.02 -0.48,0.36 -1.224,0.36 z m 0.36,-0.936 q 0.672,0 1.056,-0.42 0.384,-0.42 0.384,-1.164 v -1.8 q 0,-0.744 -0.384,-1.164 -0.384,-0.42 -1.056,-0.42 -0.684,0 -1.068,0.36 -0.384,0.348 -0.384,1.164 v 1.92 q 0,0.804 0.384,1.164 0.384,0.36 1.068,0.36 z m 4.64401,0.816 v -0.984 h 2.34 v -4.632 h -2.1 V 299.4 h 3.18 v 5.616 h 2.22 V 306 Z m 2.76,-7.788 q -0.396,0 -0.624,-0.204 -0.228,-0.204 -0.228,-0.552 0,-0.36 0.228,-0.564 0.228,-0.216 0.624,-0.216 0.396,0 0.624,0.216 0.228,0.204 0.228,0.564 0,0.348 -0.228,0.552 -0.228,0.204 -0.624,0.204 z m 6.312,7.788 -2.244,-6.6 h 1.164 l 1.44,4.44 q 0.132,0.396 0.228,0.768 0.096,0.36 0.144,0.564 0.06,-0.204 0.144,-0.564 0.084,-0.372 0.204,-0.768 l 1.44,-4.44 h 1.14 l -2.244,6.6 z m 7.908,0.12 q -1.164,0 -1.884,-0.696 -0.708,-0.708 -0.708,-1.944 v -1.56 q 0,-1.236 0.708,-1.932 0.72,-0.708 1.884,-0.708 0.78,0 1.356,0.312 0.588,0.312 0.912,0.876 0.324,0.564 0.324,1.332 v 1.176 h -4.128 v 0.624 q 0,0.732 0.42,1.164 0.42,0.42 1.116,0.42 0.6,0 0.984,-0.228 0.396,-0.24 0.48,-0.636 h 1.08 q -0.108,0.828 -0.804,1.32 -0.696,0.48 -1.74,0.48 z m -1.536,-3.984 h 3.072 V 301.8 q 0,-0.78 -0.408,-1.2 -0.396,-0.432 -1.128,-0.432 -0.732,0 -1.14,0.432 -0.396,0.42 -0.396,1.2 z m 6.48001,3.864 v -6.6 h 1.08 v 1.26 h 0.024 q 0.084,-0.636 0.54,-1.008 0.456,-0.372 1.224,-0.372 1.032,0 1.584,0.624 0.564,0.612 0.564,1.752 v 0.564 h -1.08 v -0.564 q 0,-1.44 -1.404,-1.44 -0.708,0 -1.08,0.408 -0.372,0.408 -0.372,1.176 v 4.2 z m 9.19201,0.096 q -1.104,0 -1.716,-0.492 -0.6,-0.504 -0.6,-1.416 h 1.08 q 0,0.456 0.324,0.72 0.324,0.252 0.912,0.252 h 0.528 q 0.6,0 0.924,-0.264 0.336,-0.264 0.336,-0.744 0,-0.852 -0.78,-0.96 l -1.824,-0.264 q -0.672,-0.096 -1.044,-0.552 -0.372,-0.468 -0.372,-1.224 0,-0.864 0.588,-1.356 0.6,-0.492 1.644,-0.492 h 0.528 q 0.96,0 1.56,0.48 0.612,0.468 0.66,1.236 h -1.092 q -0.024,-0.348 -0.336,-0.576 -0.3,-0.228 -0.792,-0.228 h -0.528 q -0.552,0 -0.864,0.252 -0.312,0.252 -0.312,0.684 0,0.696 0.636,0.792 l 1.704,0.24 q 1.68,0.24 1.68,1.968 0,0.924 -0.612,1.44 -0.6,0.504 -1.704,0.504 z m 4.884,-0.096 v -0.984 h 2.34 v -4.632 h -2.1 V 299.4 h 3.18 v 5.616 h 2.22 V 306 Z m 2.76,-7.788 q -0.396,0 -0.624,-0.204 -0.228,-0.204 -0.228,-0.552 0,-0.36 0.228,-0.564 0.228,-0.216 0.624,-0.216 0.396,0 0.624,0.216 0.228,0.204 0.228,0.564 0,0.348 -0.228,0.552 -0.228,0.204 -0.624,0.204 z m 7.67999,7.788 q -0.816,0 -1.308,-0.468 -0.492,-0.48 -0.492,-1.272 v -3.876 h -1.896 V 299.4 h 1.896 v -1.86 h 1.08 v 1.86 h 2.7 v 0.984 h -2.7 v 3.876 q 0,0.336 0.192,0.552 0.204,0.204 0.528,0.204 h 1.92 V 306 Z m 5.07602,2.16 0.972,-2.568 -2.46,-6.192 h 1.164 l 1.56,4.08 q 0.096,0.24 0.18,0.504 0.084,0.264 0.12,0.456 0.036,-0.192 0.12,-0.456 0.084,-0.264 0.168,-0.504 l 1.452,-4.08 h 1.14 l -3.288,8.76 z"
     id="text10"
     style="font-size:12px;fill:#5e7c4e"
     aria-label="modular crates · client diversity" />
  <path
     d="m 1118.412,65 v -8.03 h 2.585 q 1.122,0 1.782,0.649 0.671,0.638 0.671,1.716 0,1.078 -0.671,1.727 -0.66,0.638 -1.782,0.638 h -1.595 V 65 Z m 0.99,-4.191 h 1.595 q 0.649,0 1.034,-0.396 0.396,-0.407 0.396,-1.078 0,-0.682 -0.396,-1.078 -0.385,-0.396 -1.034,-0.396 h -1.595 z m 7.221,4.191 v -8.03 h 2.475 q 0.715,0 1.254,0.297 0.539,0.286 0.836,0.803 0.297,0.517 0.297,1.21 0,0.814 -0.418,1.397 -0.418,0.583 -1.111,0.814 l 1.639,3.509 h -1.089 l -1.573,-3.41 h -1.331 V 65 Z m 0.979,-4.301 h 1.496 q 0.616,0 0.99,-0.385 0.374,-0.396 0.374,-1.034 0,-0.649 -0.374,-1.034 -0.374,-0.385 -0.99,-0.385 h -1.496 z M 1134.9,65 v -8.03 h 4.62 v 0.902 h -3.641 v 2.486 h 3.256 v 0.88 h -3.256 v 2.86 h 3.641 V 65 Z m 8.64,-3.19 v -0.88 h 3.52 v 0.88 z m 7.683,3.19 v -8.03 h 2.475 q 0.715,0 1.254,0.297 0.539,0.286 0.836,0.803 0.297,0.517 0.297,1.21 0,0.814 -0.418,1.397 -0.418,0.583 -1.111,0.814 l 1.639,3.509 h -1.089 l -1.573,-3.41 h -1.331 V 65 Z m 0.979,-4.301 h 1.496 q 0.616,0 0.99,-0.385 0.374,-0.396 0.374,-1.034 0,-0.649 -0.374,-1.034 -0.374,-0.385 -0.99,-0.385 h -1.496 z M 1159.5,65 v -8.03 h 4.62 v 0.902 h -3.641 v 2.486 h 3.256 v 0.88 h -3.256 v 2.86 h 3.641 V 65 Z m 8.53,0 v -8.03 h 0.99 v 7.128 h 3.63 V 65 Z m 7.87,0 v -8.03 h 4.62 v 0.902 h -3.641 v 2.486 h 3.256 v 0.88 h -3.256 v 2.86 h 3.641 V 65 Z m 7.65,0 2.09,-8.03 h 1.331 l 2.079,8.03 h -1.001 l -0.528,-2.134 h -2.431 L 1184.562,65 Z m 1.738,-2.97 h 2.024 l -0.616,-2.475 q -0.176,-0.704 -0.275,-1.177 -0.099,-0.473 -0.121,-0.616 -0.022,0.143 -0.121,0.616 -0.099,0.473 -0.275,1.166 z m 9.256,3.08 q -1.166,0 -1.859,-0.616 -0.693,-0.616 -0.693,-1.694 h 0.99 q 0,0.671 0.429,1.056 0.429,0.374 1.133,0.374 0.682,0 1.089,-0.396 0.407,-0.396 0.407,-1.034 0,-0.484 -0.264,-0.836 -0.253,-0.363 -0.737,-0.495 l -1.221,-0.341 q -0.759,-0.22 -1.199,-0.781 -0.429,-0.572 -0.429,-1.342 0,-0.638 0.286,-1.122 0.286,-0.484 0.803,-0.748 0.517,-0.275 1.188,-0.275 0.682,0 1.199,0.275 0.528,0.264 0.825,0.748 0.297,0.473 0.297,1.1 h -0.99 q 0,-0.55 -0.374,-0.891 -0.374,-0.352 -0.957,-0.352 -0.583,0 -0.946,0.352 -0.363,0.341 -0.363,0.891 0,0.44 0.231,0.759 0.242,0.308 0.671,0.429 l 1.254,0.352 q 0.803,0.22 1.243,0.836 0.451,0.605 0.451,1.441 0,1.056 -0.671,1.683 -0.671,0.627 -1.793,0.627 z M 1200.5,65 v -8.03 h 4.62 v 0.902 h -3.641 v 2.486 h 3.256 v 0.88 h -3.256 v 2.86 h 3.641 V 65 Z"
     id="text11"
     style="font-size:11px;letter-spacing:1.6;text-anchor:end;fill:#a8d68a"
     aria-label="PRE-RELEASE" />
  <path
     d="m 1143.95,306 2.09,-8.03 h 1.331 l 2.079,8.03 h -1.001 l -0.528,-2.134 h -2.431 l -0.528,2.134 z m 1.738,-2.97 h 2.024 l -0.616,-2.475 q -0.176,-0.704 -0.275,-1.177 -0.099,-0.473 -0.121,-0.616 -0.022,0.143 -0.121,0.616 -0.099,0.473 -0.275,1.166 z m 9.056,3.08 q -1.1,0 -1.738,-0.616 -0.638,-0.616 -0.638,-1.694 v -3.63 q 0,-1.078 0.638,-1.694 0.638,-0.616 1.738,-0.616 1.078,0 1.716,0.627 0.638,0.616 0.638,1.683 h -0.99 q 0,-0.682 -0.363,-1.045 -0.352,-0.374 -1.001,-0.374 -0.649,0 -1.023,0.363 -0.363,0.363 -0.363,1.045 v 3.641 q 0,0.682 0.363,1.056 0.374,0.374 1.023,0.374 0.649,0 1.001,-0.374 0.363,-0.374 0.363,-1.056 v -1.1 h -1.628 v -0.902 h 2.618 v 2.002 q 0,1.067 -0.638,1.694 -0.638,0.616 -1.716,0.616 z m 5.668,-0.11 v -8.03 h 2.585 q 1.122,0 1.782,0.649 0.671,0.638 0.671,1.716 0,1.078 -0.671,1.727 -0.66,0.638 -1.782,0.638 h -1.595 v 3.3 z m 0.99,-4.191 h 1.595 q 0.649,0 1.034,-0.396 0.396,-0.407 0.396,-1.078 0,-0.682 -0.396,-1.078 -0.385,-0.396 -1.034,-0.396 h -1.595 z m 7.428,4.191 v -8.03 h 0.99 v 7.128 h 3.63 V 306 Z m 8.11,-3.19 v -0.88 h 3.52 v 0.88 z m 9.639,3.3 q -1.111,0 -1.76,-0.616 -0.649,-0.627 -0.649,-1.694 h 0.99 q 0,0.66 0.385,1.045 0.385,0.385 1.045,0.385 0.66,0 1.045,-0.385 0.385,-0.385 0.385,-1.045 v -0.55 q 0,-0.66 -0.385,-1.045 -0.385,-0.385 -1.045,-0.385 h -0.869 v -0.858 l 1.969,-2.09 h -3.3 v -0.902 h 4.422 v 0.924 l -1.936,2.057 q 0.99,0.077 1.562,0.693 0.572,0.605 0.572,1.606 v 0.55 q 0,1.067 -0.66,1.694 -0.649,0.616 -1.771,0.616 z m 8.121,0 q -0.407,0 -0.66,-0.242 -0.242,-0.242 -0.242,-0.627 0,-0.407 0.242,-0.66 0.253,-0.253 0.66,-0.253 0.407,0 0.649,0.253 0.253,0.253 0.253,0.66 0,0.385 -0.253,0.627 -0.242,0.242 -0.649,0.242 z m 8,0 q -1.111,0 -1.771,-0.638 -0.649,-0.649 -0.649,-1.727 v -3.52 q 0,-1.078 0.649,-1.716 0.66,-0.649 1.771,-0.649 1.111,0 1.76,0.649 0.66,0.638 0.66,1.716 v 3.52 q 0,0.715 -0.297,1.254 -0.297,0.528 -0.847,0.825 -0.539,0.286 -1.276,0.286 z m 0,-0.847 q 0.66,0 1.056,-0.418 0.407,-0.429 0.407,-1.1 v -3.52 q 0,-0.671 -0.407,-1.089 -0.396,-0.429 -1.056,-0.429 -0.66,0 -1.067,0.429 -0.396,0.418 -0.396,1.089 v 3.52 q 0,0.671 0.396,1.1 0.407,0.418 1.067,0.418 z m 0,-2.673 q -0.297,0 -0.484,-0.165 -0.176,-0.165 -0.176,-0.473 0,-0.297 0.176,-0.451 0.187,-0.165 0.484,-0.165 0.297,0 0.473,0.165 0.187,0.154 0.187,0.451 0,0.308 -0.187,0.473 -0.176,0.165 -0.473,0.165 z"
     id="text12"
     style="font-size:11px;letter-spacing:1.4;text-anchor:end;fill:#6f7570"
     aria-label="AGPL-3.0" />
</svg>
