<svg xmlns="http://www.w3.org/2000/svg" viewBox="0 0 1280 320" width="1280" height="320" role="img" aria-label="Nexum vertex — Ethereum Swarm node in Rust" font-family="'JetBrains Mono','IBM Plex Mono',ui-monospace,Menlo,Consolas,'Liberation Mono',monospace">
  <rect width="1280" height="320" fill="#0a0b0a"/>

  <g stroke="#5e7c4e" stroke-width="1" fill="none">
    <path d="M24 24 L24 56 M24 24 L56 24"/>
    <path d="M1256 24 L1256 56 M1256 24 L1224 24"/>
    <path d="M24 296 L24 264 M24 296 L56 296"/>
    <path d="M1256 296 L1256 264 M1256 296 L1224 296"/>
  </g>

  <circle cx="74" cy="60" r="5" fill="#a8d68a"/>
  <text x="92" y="65" fill="#d6d6cf" font-size="16" font-weight="600" letter-spacing="3.2">NEXUM</text>
  <line x1="160" y1="48" x2="160" y2="72" stroke="#1f221f" stroke-width="1"/>
  <text x="172" y="65" fill="#a8d68a" font-size="14" letter-spacing="1.6">nxm-rs / vertex</text>

  <text x="74" y="142" fill="#a8d68a" font-size="13" letter-spacing="2.4">◆ ETHEREUM SWARM · BEE-COMPATIBLE · RUST</text>

  <text x="74" y="200" fill="#d6d6cf" font-size="52" font-weight="500" letter-spacing="-1.5">A Swarm node</text>
  <text x="74" y="246" fill="#a8d68a" font-size="52" font-weight="500" letter-spacing="-1.5">written from scratch.</text>

  <text x="74" y="292" fill="#5e7c4e" font-size="12">postage stamps · push/pull sync · storage incentives</text>
  <text x="74" y="306" fill="#5e7c4e" font-size="12">modular crates · client diversity</text>

  <text x="1206" y="65"  fill="#a8d68a" font-size="11" letter-spacing="1.6" text-anchor="end">PRE-RELEASE</text>
  <text x="1206" y="306" fill="#6f7570" font-size="11" letter-spacing="1.4" text-anchor="end">AGPL-3.0</text>
</svg>
